<svg xmlns="http://www.w3.org/2000/svg" width="1440" height="900"><path d="M808,512L691,454L726,582Z" fill="#6dc3ca" stroke="#6dc3ca" stroke-width="1.51"/><path d="M691,454L632,479L726,582Z" fill="#77c7c6" stroke="#77c7c6" stroke-width="1.51"/><path d="M726,582L881,596L808,512Z" fill="#5cb9cf" stroke="#5cb9cf" stroke-width="1.51"/><path d="M632,479L524,537L726,582Z" fill="#7bc7c6" stroke="#7bc7c6" stroke-width="1.51"/><path d="M524,537L566,692L726,582Z" fill="#75bec3" stroke="#75bec3" stroke-width="1.51"/><path d="M726,582L707,788L881,596Z" fill="#56acc5" stroke="#56acc5" stroke-width="1.51"/><path d="M873,263L700,255L691,454Z" fill="#92d3bf" stroke="#92d3bf" stroke-width="1.51"/><path d="M691,454L584,246L632,479Z" fill="#93d4bd" stroke="#93d4bd" stroke-width="1.51"/><path d="M632,479L471,444L524,537Z" fill="#8dd0bf" stroke="#8dd0bf" stroke-width="1.51"/><path d="M873,263L691,454L808,512Z" fill="#7ecac5" stroke="#7ecac5" stroke-width="1.51"/><path d="M584,246L471,444L632,479Z" fill="#9cd8ba" stroke="#9cd8ba" stroke-width="1.51"/><path d="M524,537L430,625L566,692Z" fill="#81bfc1" stroke="#81bfc1" stroke-width="1.51"/><path d="M566,692L707,788L726,582Z" fill="#63acbf" stroke="#63acbf" stroke-width="1.51"/><path d="M957,281L873,263L808,512Z" fill="#82c8c4" stroke="#82c8c4" stroke-width="1.51"/><path d="M881,596L1022,437L808,512Z" fill="#59b7d0" stroke="#59b7d0" stroke-width="1.51"/><path d="M976,714L993,630L881,596Z" fill="#3d9fc8" stroke="#3d9fc8" stroke-width="1.51"/><path d="M993,630L1022,437L881,596Z" fill="#4badcf" stroke="#4badcf" stroke-width="1.51"/><path d="M700,255L584,246L691,454Z" fill="#9ed8bc" stroke="#9ed8bc" stroke-width="1.51"/><path d="M600,187L584,246L700,255Z" fill="#b0e0c0" stroke="#b0e0c0" stroke-width="1.51"/><path d="M918,793L976,714L881,596Z" fill="#3a98c5" stroke="#3a98c5" stroke-width="1.51"/><path d="M1022,437L957,281L808,512Z" fill="#70bfc8" stroke="#70bfc8" stroke-width="1.51"/><path d="M471,444L430,625L524,537Z" fill="#8ecdc5" stroke="#8ecdc5" stroke-width="1.51"/><path d="M569,965L725,916L707,788Z" fill="#5787a3" stroke="#5787a3" stroke-width="1.51"/><path d="M707,788L918,793L881,596Z" fill="#469bc2" stroke="#469bc2" stroke-width="1.51"/><path d="M686,93L700,255L873,263Z" fill="#a5dac8" stroke="#a5dac8" stroke-width="1.51"/><path d="M686,93L600,187L700,255Z" fill="#b1e0c7" stroke="#b1e0c7" stroke-width="1.51"/><path d="M584,246L390,283L471,444Z" fill="#b0e1b8" stroke="#b0e1b8" stroke-width="1.51"/><path d="M430,625L402,733L566,692Z" fill="#7eb5be" stroke="#7eb5be" stroke-width="1.51"/><path d="M296,594L402,733L430,625Z" fill="#8bbec4" stroke="#8bbec4" stroke-width="1.51"/><path d="M707,788L833,905L918,793Z" fill="#438ab4" stroke="#438ab4" stroke-width="1.51"/><path d="M569,965L707,788L566,692Z" fill="#6398af" stroke="#6398af" stroke-width="1.51"/><path d="M725,916L833,905L707,788Z" fill="#4b86aa" stroke="#4b86aa" stroke-width="1.51"/><path d="M957,281L957,165L873,263Z" fill="#92cbca" stroke="#92cbca" stroke-width="1.51"/><path d="M1120,261L957,165L957,281Z" fill="#8dc1c5" stroke="#8dc1c5" stroke-width="1.51"/><path d="M371,156L390,283L584,246Z" fill="#c3e8c1" stroke="#c3e8c1" stroke-width="1.51"/><path d="M471,444L300,443L430,625Z" fill="#9ad4c6" stroke="#9ad4c6" stroke-width="1.51"/><path d="M993,630L1150,566L1022,437Z" fill="#46a4c9" stroke="#46a4c9" stroke-width="1.51"/><path d="M1022,437L1120,261L957,281Z" fill="#7cb9be" stroke="#7cb9be" stroke-width="1.51"/><path d="M1141,762L1150,566L993,630Z" fill="#2e8ec0" stroke="#2e8ec0" stroke-width="1.51"/><path d="M1141,762L993,630L976,714Z" fill="#2e8cbf" stroke="#2e8cbf" stroke-width="1.51"/><path d="M1032,880L976,714L918,793Z" fill="#2c83ba" stroke="#2c83ba" stroke-width="1.51"/><path d="M600,187L371,156L584,246Z" fill="#bfe6c1" stroke="#bfe6c1" stroke-width="1.51"/><path d="M921,97L686,93L873,263Z" fill="#a3d6d0" stroke="#a3d6d0" stroke-width="1.51"/><path d="M390,283L300,443L471,444Z" fill="#aedfc0" stroke="#aedfc0" stroke-width="1.51"/><path d="M1150,566L1180,468L1022,437Z" fill="#50a3c2" stroke="#50a3c2" stroke-width="1.51"/><path d="M300,443L296,594L430,625Z" fill="#98d0cd" stroke="#98d0cd" stroke-width="1.51"/><path d="M957,165L921,97L873,263Z" fill="#9aced1" stroke="#9aced1" stroke-width="1.51"/><path d="M1067,16L921,97L957,165Z" fill="#9ccad4" stroke="#9ccad4" stroke-width="1.51"/><path d="M1180,468L1120,261L1022,437Z" fill="#69acbc" stroke="#69acbc" stroke-width="1.51"/><path d="M833,905L1032,880L918,793Z" fill="#307cb0" stroke="#307cb0" stroke-width="1.51"/><path d="M1032,880L1141,762L976,714Z" fill="#237db7" stroke="#237db7" stroke-width="1.51"/><path d="M1150,566L1366,542L1180,468Z" fill="#4293bf" stroke="#4293bf" stroke-width="1.51"/><path d="M725,916L834,995L833,905Z" fill="#437ea6" stroke="#437ea6" stroke-width="1.51"/><path d="M833,905L834,995L1032,880Z" fill="#3277a9" stroke="#3277a9" stroke-width="1.51"/><path d="M475,945L569,965L566,692Z" fill="#6a90a2" stroke="#6a90a2" stroke-width="1.51"/><path d="M475,945L566,692L402,733Z" fill="#75a2b4" stroke="#75a2b4" stroke-width="1.51"/><path d="M704,1030L834,995L725,916Z" fill="#4980a4" stroke="#4980a4" stroke-width="1.51"/><path d="M309,941L475,945L402,733Z" fill="#7894a8" stroke="#7894a8" stroke-width="1.51"/><path d="M390,283L243,350L300,443Z" fill="#b9e4c1" stroke="#b9e4c1" stroke-width="1.51"/><path d="M515,-25L371,156L600,187Z" fill="#c9eaca" stroke="#c9eaca" stroke-width="1.51"/><path d="M300,443L111,576L296,594Z" fill="#a1d4d2" stroke="#a1d4d2" stroke-width="1.51"/><path d="M271,164L243,350L390,283Z" fill="#c9eac5" stroke="#c9eac5" stroke-width="1.51"/><path d="M569,965L704,1030L725,916Z" fill="#5685a1" stroke="#5685a1" stroke-width="1.51"/><path d="M540,997L704,1030L569,965Z" fill="#5f879e" stroke="#5f879e" stroke-width="1.51"/><path d="M475,945L540,997L569,965Z" fill="#698b9d" stroke="#698b9d" stroke-width="1.51"/><path d="M1120,261L1117,147L957,165Z" fill="#8ebdc7" stroke="#8ebdc7" stroke-width="1.51"/><path d="M1266,162L1117,147L1120,261Z" fill="#89b2c2" stroke="#89b2c2" stroke-width="1.51"/><path d="M118,755L271,780L296,594Z" fill="#8fb7c7" stroke="#8fb7c7" stroke-width="1.51"/><path d="M296,594L271,780L402,733Z" fill="#8ab6c3" stroke="#8ab6c3" stroke-width="1.51"/><path d="M686,93L515,-25L600,187Z" fill="#c1e6cd" stroke="#c1e6cd" stroke-width="1.51"/><path d="M846,-26L715,-32L686,93Z" fill="#b8e2da" stroke="#b8e2da" stroke-width="1.51"/><path d="M846,-26L686,93L921,97Z" fill="#addbd9" stroke="#addbd9" stroke-width="1.51"/><path d="M1067,16L846,-26L921,97Z" fill="#a5d1dd" stroke="#a5d1dd" stroke-width="1.51"/><path d="M1032,880L1145,920L1141,762Z" fill="#1c6ba6" stroke="#1c6ba6" stroke-width="1.51"/><path d="M1334,733L1366,542L1150,566Z" fill="#2c81b7" stroke="#2c81b7" stroke-width="1.51"/><path d="M964,1103L1145,920L1032,880Z" fill="#2268a1" stroke="#2268a1" stroke-width="1.51"/><path d="M964,1103L1032,880L834,995Z" fill="#2e73a7" stroke="#2e73a7" stroke-width="1.51"/><path d="M715,-32L515,-25L686,93Z" fill="#c4e8d5" stroke="#c4e8d5" stroke-width="1.51"/><path d="M371,156L271,164L390,283Z" fill="#cfedc8" stroke="#cfedc8" stroke-width="1.51"/><path d="M224,53L271,164L371,156Z" fill="#d9f0d3" stroke="#d9f0d3" stroke-width="1.51"/><path d="M1117,147L1067,16L957,165Z" fill="#96c2d0" stroke="#96c2d0" stroke-width="1.51"/><path d="M1117,147L1114,43L1067,16Z" fill="#97bed0" stroke="#97bed0" stroke-width="1.51"/><path d="M1266,162L1114,43L1117,147Z" fill="#8fb5c8" stroke="#8fb5c8" stroke-width="1.51"/><path d="M271,780L309,941L402,733Z" fill="#81a1b6" stroke="#81a1b6" stroke-width="1.51"/><path d="M475,945L455,1114L540,997Z" fill="#6d8c9e" stroke="#6d8c9e" stroke-width="1.51"/><path d="M515,-25L408,-6L371,156Z" fill="#d6efd3" stroke="#d6efd3" stroke-width="1.51"/><path d="M243,350L126,396L300,443Z" fill="#b7e3c9" stroke="#b7e3c9" stroke-width="1.51"/><path d="M126,876L227,1006L309,941Z" fill="#8093ac" stroke="#8093ac" stroke-width="1.51"/><path d="M64,251L126,396L243,350Z" fill="#c8eaca" stroke="#c8eaca" stroke-width="1.51"/><path d="M846,-26L855,-99L715,-32Z" fill="#b4dedd" stroke="#b4dedd" stroke-width="1.51"/><path d="M715,-32L523,-103L515,-25Z" fill="#cbebd4" stroke="#cbebd4" stroke-width="1.51"/><path d="M515,-25L523,-103L408,-6Z" fill="#d6efd5" stroke="#d6efd5" stroke-width="1.51"/><path d="M1067,16L855,-99L846,-26Z" fill="#aad4e0" stroke="#aad4e0" stroke-width="1.51"/><path d="M126,396L111,576L300,443Z" fill="#adddd1" stroke="#adddd1" stroke-width="1.51"/><path d="M1334,733L1150,566L1141,762Z" fill="#217db7" stroke="#217db7" stroke-width="1.51"/><path d="M1180,468L1319,262L1120,261Z" fill="#72a7b5" stroke="#72a7b5" stroke-width="1.51"/><path d="M1380,386L1319,262L1180,468Z" fill="#669ab0" stroke="#669ab0" stroke-width="1.51"/><path d="M1319,262L1266,162L1120,261Z" fill="#83a9bb" stroke="#83a9bb" stroke-width="1.51"/><path d="M704,1030L964,1103L834,995Z" fill="#3e7ba7" stroke="#3e7ba7" stroke-width="1.51"/><path d="M455,1114L964,1103L704,1030Z" fill="#5083a2" stroke="#5083a2" stroke-width="1.51"/><path d="M455,1114L704,1030L540,997Z" fill="#64899d" stroke="#64899d" stroke-width="1.51"/><path d="M1313,884L1141,762L1145,920Z" fill="#1262a2" stroke="#1262a2" stroke-width="1.51"/><path d="M1313,884L1334,733L1141,762Z" fill="#0866aa" stroke="#0866aa" stroke-width="1.51"/><path d="M671,-166L523,-103L715,-32Z" fill="#c5e8d6" stroke="#c5e8d6" stroke-width="1.51"/><path d="M1366,542L1380,386L1180,468Z" fill="#4e91b3" stroke="#4e91b3" stroke-width="1.51"/><path d="M111,576L118,755L296,594Z" fill="#98c4d1" stroke="#98c4d1" stroke-width="1.51"/><path d="M309,941L455,1114L475,945Z" fill="#748ea2" stroke="#748ea2" stroke-width="1.51"/><path d="M227,1006L455,1114L309,941Z" fill="#7b91a6" stroke="#7b91a6" stroke-width="1.51"/><path d="M855,-99L671,-166L715,-32Z" fill="#b9e2db" stroke="#b9e2db" stroke-width="1.51"/><path d="M271,164L104,206L243,350Z" fill="#d2eecd" stroke="#d2eecd" stroke-width="1.51"/><path d="M408,-6L224,53L371,156Z" fill="#dcf2d5" stroke="#dcf2d5" stroke-width="1.51"/><path d="M299,-134L224,53L408,-6Z" fill="#e5f5dd" stroke="#e5f5dd" stroke-width="1.51"/><path d="M1200,1098L1313,884L1145,920Z" fill="#105898" stroke="#105898" stroke-width="1.51"/><path d="M1419,655L1434,507L1366,542Z" fill="#327aad" stroke="#327aad" stroke-width="1.51"/><path d="M1419,655L1366,542L1334,733Z" fill="#2572aa" stroke="#2572aa" stroke-width="1.51"/><path d="M1366,542L1434,507L1380,386Z" fill="#4985aa" stroke="#4985aa" stroke-width="1.51"/><path d="M1505,782L1419,655L1334,733Z" fill="#175f9e" stroke="#175f9e" stroke-width="1.51"/><path d="M126,396L19,461L111,576Z" fill="#b2dfd7" stroke="#b2dfd7" stroke-width="1.51"/><path d="M224,53L104,206L271,164Z" fill="#ddf2d7" stroke="#ddf2d7" stroke-width="1.51"/><path d="M126,876L309,941L271,780Z" fill="#829ab2" stroke="#829ab2" stroke-width="1.51"/><path d="M118,755L126,876L271,780Z" fill="#8aa7c2" stroke="#8aa7c2" stroke-width="1.51"/><path d="M64,251L19,461L126,396Z" fill="#c6e9d0" stroke="#c6e9d0" stroke-width="1.51"/><path d="M111,576L-12,582L118,755Z" fill="#9fc7d7" stroke="#9fc7d7" stroke-width="1.51"/><path d="M118,755L-60,811L126,876Z" fill="#90a8c6" stroke="#90a8c6" stroke-width="1.51"/><path d="M104,206L64,251L243,350Z" fill="#d2eecf" stroke="#d2eecf" stroke-width="1.51"/><path d="M-38,185L64,251L104,206Z" fill="#e0f3d9" stroke="#e0f3d9" stroke-width="1.51"/><path d="M855,-99L1003,-179L671,-166Z" fill="#b1dbdf" stroke="#b1dbdf" stroke-width="1.51"/><path d="M1067,16L1003,-179L855,-99Z" fill="#a6cfdd" stroke="#a6cfdd" stroke-width="1.51"/><path d="M1215,-117L1003,-179L1067,16Z" fill="#9ec1d7" stroke="#9ec1d7" stroke-width="1.51"/><path d="M1215,-117L1067,16L1114,43Z" fill="#9cbcd5" stroke="#9cbcd5" stroke-width="1.51"/><path d="M523,-103L436,-168L408,-6Z" fill="#d8f0d6" stroke="#d8f0d6" stroke-width="1.51"/><path d="M671,-166L436,-168L523,-103Z" fill="#cfedd2" stroke="#cfedd2" stroke-width="1.51"/><path d="M1003,-179L436,-168L671,-166Z" fill="#bee5d9" stroke="#bee5d9" stroke-width="1.51"/><path d="M1350,1111L1200,1098L964,1103Z" fill="#155c9b" stroke="#155c9b" stroke-width="1.51"/><path d="M964,1103L1200,1098L1145,920Z" fill="#1c639e" stroke="#1c639e" stroke-width="1.51"/><path d="M-149,608L-12,582L-177,405Z" fill="#b0dbe0" stroke="#b0dbe0" stroke-width="1.51"/><path d="M19,461L-12,582L111,576Z" fill="#add9de" stroke="#add9de" stroke-width="1.51"/><path d="M1434,507L1469,328L1380,386Z" fill="#5987a2" stroke="#5987a2" stroke-width="1.51"/><path d="M1380,386L1469,328L1319,262Z" fill="#6c91a3" stroke="#6c91a3" stroke-width="1.51"/><path d="M1502,122L1324,23L1266,162Z" fill="#879eb9" stroke="#879eb9" stroke-width="1.51"/><path d="M1266,162L1324,23L1114,43Z" fill="#90aec9" stroke="#90aec9" stroke-width="1.51"/><path d="M1589,333L1469,328L1617,414Z" fill="#63899e" stroke="#63899e" stroke-width="1.51"/><path d="M1502,122L1266,162L1319,262Z" fill="#819bb1" stroke="#819bb1" stroke-width="1.51"/><path d="M224,53L61,-59L104,206Z" fill="#e8f7e2" stroke="#e8f7e2" stroke-width="1.51"/><path d="M436,-168L299,-134L408,-6Z" fill="#e0f3d9" stroke="#e0f3d9" stroke-width="1.51"/><path d="M1324,23L1215,-117L1114,43Z" fill="#98b3d0" stroke="#98b3d0" stroke-width="1.51"/><path d="M1419,655L1566,606L1434,507Z" fill="#2e73a7" stroke="#2e73a7" stroke-width="1.51"/><path d="M1313,884L1505,782L1334,733Z" fill="#0a589a" stroke="#0a589a" stroke-width="1.51"/><path d="M1532,893L1505,782L1313,884Z" fill="#09488a" stroke="#09488a" stroke-width="1.51"/><path d="M1505,782L1566,606L1419,655Z" fill="#1d649f" stroke="#1d649f" stroke-width="1.51"/><path d="M299,-134L149,-89L224,53Z" fill="#e9f7e3" stroke="#e9f7e3" stroke-width="1.51"/><path d="M64,251L-89,273L19,461Z" fill="#d1edd3" stroke="#d1edd3" stroke-width="1.51"/><path d="M-51,62L-38,185L104,206Z" fill="#e8f6e1" stroke="#e8f6e1" stroke-width="1.51"/><path d="M-12,582L-60,811L118,755Z" fill="#9bbbd3" stroke="#9bbbd3" stroke-width="1.51"/><path d="M126,876L64,1035L227,1006Z" fill="#8495b1" stroke="#8495b1" stroke-width="1.51"/><path d="M-149,608L-60,811L-12,582Z" fill="#a0c4d8" stroke="#a0c4d8" stroke-width="1.51"/><path d="M-57,905L64,1035L126,876Z" fill="#8a97b6" stroke="#8a97b6" stroke-width="1.51"/><path d="M227,1006L22,1072L455,1114Z" fill="#8093ab" stroke="#8093ab" stroke-width="1.51"/><path d="M-38,185L-89,273L64,251Z" fill="#e0f3d9" stroke="#e0f3d9" stroke-width="1.51"/><path d="M1200,1098L1350,1111L1313,884Z" fill="#0a5193" stroke="#0a5193" stroke-width="1.51"/><path d="M455,1114L1350,1111L964,1103Z" fill="#3075a8" stroke="#3075a8" stroke-width="1.51"/><path d="M1324,23L1360,-169L1215,-117Z" fill="#94aac9" stroke="#94aac9" stroke-width="1.51"/><path d="M1469,328L1502,122L1319,262Z" fill="#7890a4" stroke="#7890a4" stroke-width="1.51"/><path d="M1589,333L1502,122L1469,328Z" fill="#748ea2" stroke="#748ea2" stroke-width="1.51"/><path d="M1617,414L1469,328L1434,507Z" fill="#5685a1" stroke="#5685a1" stroke-width="1.51"/><path d="M149,-89L61,-59L224,53Z" fill="#eef9e7" stroke="#eef9e7" stroke-width="1.51"/><path d="M-235,135L-230,320L-89,273Z" fill="#dff3d9" stroke="#dff3d9" stroke-width="1.51"/><path d="M1532,1034L1532,893L1313,884Z" fill="#084081" stroke="#084081" stroke-width="1.51"/><path d="M1505,782L1594,773L1566,606Z" fill="#175e9c" stroke="#175e9c" stroke-width="1.51"/><path d="M1502,122L1458,0L1324,23Z" fill="#8998b5" stroke="#8998b5" stroke-width="1.51"/><path d="M1605,-13L1458,0L1502,122Z" fill="#8a97b5" stroke="#8a97b5" stroke-width="1.51"/><path d="M-60,811L-57,905L126,876Z" fill="#909fc0" stroke="#909fc0" stroke-width="1.51"/><path d="M-154,923L-57,905L-60,811Z" fill="#8f9cbc" stroke="#8f9cbc" stroke-width="1.51"/><path d="M1711,509L1617,414L1566,606Z" fill="#417da6" stroke="#417da6" stroke-width="1.51"/><path d="M1566,606L1617,414L1434,507Z" fill="#417da6" stroke="#417da6" stroke-width="1.51"/><path d="M-177,405L-12,582L19,461Z" fill="#b7e1dc" stroke="#b7e1dc" stroke-width="1.51"/><path d="M1532,893L1594,773L1505,782Z" fill="#094f91" stroke="#094f91" stroke-width="1.51"/><path d="M61,-59L-51,62L104,206Z" fill="#eef8e7" stroke="#eef8e7" stroke-width="1.51"/><path d="M64,1035L22,1072L227,1006Z" fill="#8796b3" stroke="#8796b3" stroke-width="1.51"/><path d="M-57,905L22,1072L64,1035Z" fill="#8c98b8" stroke="#8c98b8" stroke-width="1.51"/><path d="M-89,273L-177,405L19,461Z" fill="#c8ead5" stroke="#c8ead5" stroke-width="1.51"/><path d="M-230,320L-177,405L-89,273Z" fill="#d1edd3" stroke="#d1edd3" stroke-width="1.51"/><path d="M1458,0L1360,-169L1324,23Z" fill="#909fbf" stroke="#909fbf" stroke-width="1.51"/><path d="M1215,-117L1360,-169L1003,-179Z" fill="#99b6d2" stroke="#99b6d2" stroke-width="1.51"/><path d="M-145,-146L149,-89L299,-134Z" fill="#f1faea" stroke="#f1faea" stroke-width="1.51"/><path d="M-145,-146L24,-89L149,-89Z" fill="#f7fcef" stroke="#f7fcef" stroke-width="1.51"/><path d="M149,-89L24,-89L61,-59Z" fill="#f2faeb" stroke="#f2faeb" stroke-width="1.51"/><path d="M61,-59L24,-89L-51,62Z" fill="#f6fbef" stroke="#f6fbef" stroke-width="1.51"/><path d="M1350,1111L1532,1034L1313,884Z" fill="#094486" stroke="#094486" stroke-width="1.51"/><path d="M1532,893L1604,934L1594,773Z" fill="#094687" stroke="#094687" stroke-width="1.51"/><path d="M1532,1034L1604,934L1532,893Z" fill="#084081" stroke="#084081" stroke-width="1.51"/><path d="M1712,548L1711,509L1566,606Z" fill="#3578a9" stroke="#3578a9" stroke-width="1.51"/><path d="M1725,285L1672,139L1589,333Z" fill="#758fa2" stroke="#758fa2" stroke-width="1.51"/><path d="M1589,333L1672,139L1502,122Z" fill="#7c91a6" stroke="#7c91a6" stroke-width="1.51"/><path d="M1712,548L1566,606L1594,773Z" fill="#256aa2" stroke="#256aa2" stroke-width="1.51"/><path d="M1795,786L1712,548L1594,773Z" fill="#1a619d" stroke="#1a619d" stroke-width="1.51"/><path d="M-57,905L-134,991L22,1072Z" fill="#8d98b8" stroke="#8d98b8" stroke-width="1.51"/><path d="M-231,792L-154,923L-60,811Z" fill="#92a3c4" stroke="#92a3c4" stroke-width="1.51"/><path d="M-231,792L-60,811L-149,608Z" fill="#9ab7d2" stroke="#9ab7d2" stroke-width="1.51"/><path d="M-177,405L-230,320L-149,608Z" fill="#bde5d9" stroke="#bde5d9" stroke-width="1.51"/><path d="M-235,135L-89,273L-38,185Z" fill="#e4f5dd" stroke="#e4f5dd" stroke-width="1.51"/><path d="M-235,135L-38,185L-51,62Z" fill="#eaf7e4" stroke="#eaf7e4" stroke-width="1.51"/><path d="M1532,1034L1576,1031L1604,934Z" fill="#084081" stroke="#084081" stroke-width="1.51"/><path d="M1350,1111L1576,1031L1532,1034Z" fill="#084081" stroke="#084081" stroke-width="1.51"/><path d="M-154,923L-134,991L-57,905Z" fill="#8d98b8" stroke="#8d98b8" stroke-width="1.51"/><path d="M-154,923L-231,792L-134,991Z" fill="#8d98b8" stroke="#8d98b8" stroke-width="1.51"/><path d="M-230,320L-231,792L-149,608Z" fill="#abd5e1" stroke="#abd5e1" stroke-width="1.51"/><path d="M1725,285L1589,333L1617,414Z" fill="#668a9d" stroke="#668a9d" stroke-width="1.51"/><path d="M1458,0L1531,-164L1360,-169Z" fill="#8d98b8" stroke="#8d98b8" stroke-width="1.51"/><path d="M1711,509L1725,285L1617,414Z" fill="#5986a0" stroke="#5986a0" stroke-width="1.51"/><path d="M1791,204L1725,285L1711,509Z" fill="#698b9d" stroke="#698b9d" stroke-width="1.51"/><path d="M1672,139L1605,-13L1502,122Z" fill="#8595b1" stroke="#8595b1" stroke-width="1.51"/><path d="M-230,320L-235,135L-231,792Z" fill="#c2e7d8" stroke="#c2e7d8" stroke-width="1.51"/><path d="M-172,-15L-235,135L-51,62Z" fill="#f1faea" stroke="#f1faea" stroke-width="1.51"/><path d="M1605,-13L1531,-164L1458,0Z" fill="#8d98b8" stroke="#8d98b8" stroke-width="1.51"/><path d="M24,-89L-172,-15L-51,62Z" fill="#f7fcf0" stroke="#f7fcf0" stroke-width="1.51"/><path d="M1712,548L1795,786L1711,509Z" fill="#2a6fa5" stroke="#2a6fa5" stroke-width="1.51"/><path d="M1604,934L1795,786L1594,773Z" fill="#094c8e" stroke="#094c8e" stroke-width="1.51"/><path d="M1825,845L1795,786L1604,934Z" fill="#094889" stroke="#094889" stroke-width="1.51"/><path d="M24,-89L-145,-146L-172,-15Z" fill="#f7fcf0" stroke="#f7fcf0" stroke-width="1.51"/><path d="M-172,-15L-145,-146L-235,135Z" fill="#f7fcf0" stroke="#f7fcf0" stroke-width="1.51"/><path d="M436,-168L-145,-146L299,-134Z" fill="#ebf7e4" stroke="#ebf7e4" stroke-width="1.51"/><path d="M1672,139L1792,-29L1605,-13Z" fill="#8997b5" stroke="#8997b5" stroke-width="1.51"/><path d="M1605,-13L1603,-213L1531,-164Z" fill="#8d98b8" stroke="#8d98b8" stroke-width="1.51"/><path d="M1725,285L1791,204L1672,139Z" fill="#7b91a5" stroke="#7b91a5" stroke-width="1.51"/><path d="M1795,786L1791,204L1711,509Z" fill="#437ea6" stroke="#437ea6" stroke-width="1.51"/><path d="M1350,1111L1732,1006L1576,1031Z" fill="#084081" stroke="#084081" stroke-width="1.51"/><path d="M1576,1031L1732,1006L1604,934Z" fill="#084081" stroke="#084081" stroke-width="1.51"/><path d="M1735,-171L1603,-213L1605,-13Z" fill="#8d98b8" stroke="#8d98b8" stroke-width="1.51"/><path d="M1531,-164L1603,-213L1360,-169Z" fill="#8d98b8" stroke="#8d98b8" stroke-width="1.51"/><path d="M1360,-169L1603,-213L1003,-179Z" fill="#93a7c7" stroke="#93a7c7" stroke-width="1.51"/><path d="M1003,-179L1603,-213L436,-168Z" fill="#a4cadb" stroke="#a4cadb" stroke-width="1.51"/><path d="M436,-168L1603,-213L-145,-146Z" fill="#c6e8d6" stroke="#c6e8d6" stroke-width="1.51"/><path d="M1732,1006L1825,845L1604,934Z" fill="#084081" stroke="#084081" stroke-width="1.51"/><path d="M1795,786L1825,845L1791,204Z" fill="#2a6fa5" stroke="#2a6fa5" stroke-width="1.51"/><path d="M1825,845L1792,-29L1791,204Z" fill="#678a9c" stroke="#678a9c" stroke-width="1.51"/><path d="M1791,204L1792,-29L1672,139Z" fill="#8394af" stroke="#8394af" stroke-width="1.51"/><path d="M1792,-29L1735,-171L1605,-13Z" fill="#8d98b8" stroke="#8d98b8" stroke-width="1.51"/></svg>