<?xml version="1.0" standalone="no"?><!-- Generator: Gravit.io --><svg xmlns="http://www.w3.org/2000/svg" xmlns:xlink="http://www.w3.org/1999/xlink" style="isolation:isolate" viewBox="0 0 100 110" width="100" height="110"><defs><clipPath id="_clipPath_NGiccONBOLc3UX1T1vQb8GIY39SexY8o"><rect width="100" height="110"/></clipPath></defs><g clip-path="url(#_clipPath_NGiccONBOLc3UX1T1vQb8GIY39SexY8o)"><path d=" M 90.7 77.6 C 90.7 74.9 88.5 72.6 85.7 72.6 C 82.9 72.6 80.7 74.8 80.7 77.6 C 80.7 80 82.4 81.9 84.6 82.4 L 84.6 85 L 78.3 85 L 78.3 46.8 C 78.3 46.2 77.9 45.8 77.3 45.8 L 73.5 45.8 L 73.5 14.9 C 73.5 14.3 73.1 13.9 72.5 13.9 L 53.2 13.9 C 52.6 13.9 52.2 14.3 52.2 14.9 L 52.2 27.4 L 49.6 27.4 C 49 27.4 48.6 27.8 48.6 28.4 L 48.6 38.6 L 40.1 38.6 L 40.1 24.3 C 40.1 23.7 39.7 23.3 39.1 23.3 L 21.8 23.3 C 21.2 23.3 20.8 23.7 20.8 24.3 L 20.8 85 L 14.8 85 L 14.8 82.3 C 17.2 81.9 19 79.8 19 77.3 C 19 74.5 16.7 72.2 13.9 72.2 C 11.1 72.2 8.8 74.5 8.8 77.3 C 8.8 79.8 10.5 81.8 12.8 82.3 L 12.8 85 L 11.1 85 C 10.5 85 10.1 85.4 10.1 86 C 10.1 86.6 10.5 87 11.1 87 L 88.7 87 C 89.3 87 89.7 86.6 89.7 86 C 89.7 85.4 89.3 85 88.7 85 L 86.7 85 L 86.7 82.5 C 88.9 82 90.7 80 90.7 77.6 Z  M 10.8 77.3 C 10.8 75.6 12.2 74.2 13.9 74.2 C 15.6 74.2 17 75.6 17 77.3 C 17 79 15.6 80.4 13.9 80.4 C 12.2 80.4 10.8 79 10.8 77.3 Z  M 29.5 39.6 L 29.5 85 L 22.8 85 L 22.8 25.3 L 38.2 25.3 L 38.2 38.6 L 30.5 38.6 C 29.9 38.6 29.5 39 29.5 39.6 Z  M 42 85 L 38.2 85 L 38.2 80.1 C 38.2 79 39.1 78.1 40.1 78.1 C 41.1 78.1 42 79 42 80.1 L 42 85 L 42 85 Z  M 48.6 85 L 44 85 L 44 80.1 C 44 77.9 42.2 76.1 40.1 76.1 C 38 76.1 36.2 77.9 36.2 80.1 L 36.2 85 L 31.5 85 L 31.5 40.6 L 48.7 40.6 L 48.7 85 L 48.6 85 Z  M 54.2 15.9 L 71.5 15.9 L 71.5 45.8 L 68 45.8 L 68 28.4 C 68 27.8 67.6 27.4 67 27.4 L 54.2 27.4 L 54.2 15.9 L 54.2 15.9 Z  M 57.1 46.8 L 57.1 85 L 50.6 85 L 50.6 29.4 L 66 29.4 L 66 45.8 L 58.1 45.8 C 57.6 45.8 57.1 46.2 57.1 46.8 Z  M 70 85 L 66.2 85 L 66.2 80.1 C 66.2 79 67.1 78.1 68.1 78.1 C 69.1 78.1 70 79 70 80.1 L 70 85 L 70 85 Z  M 76.3 85 L 72 85 L 72 80.1 C 72 77.9 70.2 76.1 68.1 76.1 C 66 76.1 64.2 77.9 64.2 80.1 L 64.2 85 L 59.1 85 L 59.1 47.8 L 76.3 47.8 L 76.3 85 L 76.3 85 Z  M 85.7 80.5 C 84.1 80.5 82.7 79.2 82.7 77.5 C 82.7 75.9 84 74.5 85.7 74.5 C 87.3 74.5 88.7 75.8 88.7 77.5 C 88.7 79.2 87.4 80.5 85.7 80.5 Z " fill="rgb(255,255,255)"/><path d=" M 72 54.5 C 72.6 54.5 73 54.1 73 53.5 L 73 52 C 73 51.4 72.6 51 72 51 C 71.4 51 71 51.4 71 52 L 71 53.5 C 71 54.1 71.4 54.5 72 54.5 Z " fill="rgb(255,255,255)"/><path d=" M 67.7 54.5 C 68.3 54.5 68.7 54.1 68.7 53.5 L 68.7 52 C 68.7 51.4 68.3 51 67.7 51 C 67.1 51 66.7 51.4 66.7 52 L 66.7 53.5 C 66.7 54.1 67.2 54.5 67.7 54.5 Z " fill="rgb(255,255,255)"/><path d=" M 63.4 54.5 C 64 54.5 64.4 54.1 64.4 53.5 L 64.4 52 C 64.4 51.4 64 51 63.4 51 C 62.8 51 62.4 51.4 62.4 52 L 62.4 53.5 C 62.4 54.1 62.9 54.5 63.4 54.5 Z " fill="rgb(255,255,255)"/><path d=" M 72 60.5 C 72.6 60.5 73 60.1 73 59.5 L 73 58 C 73 57.4 72.6 57 72 57 C 71.4 57 71 57.4 71 58 L 71 59.5 C 71 60 71.4 60.5 72 60.5 Z " fill="rgb(255,255,255)"/><path d=" M 67.7 60.5 C 68.3 60.5 68.7 60.1 68.7 59.5 L 68.7 58 C 68.7 57.4 68.3 57 67.7 57 C 67.1 57 66.7 57.4 66.7 58 L 66.7 59.5 C 66.7 60 67.2 60.5 67.7 60.5 Z " fill="rgb(255,255,255)"/><path d=" M 63.4 60.5 C 64 60.5 64.4 60.1 64.4 59.5 L 64.4 58 C 64.4 57.4 64 57 63.4 57 C 62.8 57 62.4 57.4 62.4 58 L 62.4 59.5 C 62.4 60 62.9 60.5 63.4 60.5 Z " fill="rgb(255,255,255)"/><path d=" M 72 66.5 C 72.6 66.5 73 66.1 73 65.5 L 73 64 C 73 63.4 72.6 63 72 63 C 71.4 63 71 63.4 71 64 L 71 65.5 C 71 66 71.4 66.5 72 66.5 Z " fill="rgb(255,255,255)"/><path d=" M 67.7 66.5 C 68.3 66.5 68.7 66.1 68.7 65.5 L 68.7 64 C 68.7 63.4 68.3 63 67.7 63 C 67.1 63 66.7 63.4 66.7 64 L 66.7 65.5 C 66.7 66 67.2 66.5 67.7 66.5 Z " fill="rgb(255,255,255)"/><path d=" M 63.4 66.5 C 64 66.5 64.4 66.1 64.4 65.5 L 64.4 64 C 64.4 63.4 64 63 63.4 63 C 62.8 63 62.4 63.4 62.4 64 L 62.4 65.5 C 62.4 66 62.9 66.5 63.4 66.5 Z " fill="rgb(255,255,255)"/><path d=" M 72 72.4 C 72.6 72.4 73 72 73 71.4 L 73 70 C 73 69.4 72.6 69 72 69 C 71.4 69 71 69.4 71 70 L 71 71.5 C 71 72 71.4 72.4 72 72.4 Z " fill="rgb(255,255,255)"/><path d=" M 67.7 72.4 C 68.3 72.4 68.7 72 68.7 71.4 L 68.7 70 C 68.7 69.4 68.3 69 67.7 69 C 67.1 69 66.7 69.4 66.7 70 L 66.7 71.5 C 66.7 72 67.2 72.4 67.7 72.4 Z " fill="rgb(255,255,255)"/><path d=" M 63.4 72.4 C 64 72.4 64.4 72 64.4 71.4 L 64.4 70 C 64.4 69.4 64 69 63.4 69 C 62.8 69 62.4 69.4 62.4 70 L 62.4 71.5 C 62.4 72 62.9 72.4 63.4 72.4 Z " fill="rgb(255,255,255)"/><path d=" M 34.7 27.2 C 34.1 27.2 33.7 27.6 33.7 28.2 L 33.7 29.6 C 33.7 30.2 34.1 30.6 34.7 30.6 C 35.3 30.6 35.7 30.2 35.7 29.6 L 35.7 28.2 C 35.7 27.6 35.3 27.2 34.7 27.2 Z " fill="rgb(255,255,255)"/><path d=" M 30.5 27.2 C 29.9 27.2 29.5 27.6 29.5 28.2 L 29.5 29.6 C 29.5 30.2 29.9 30.6 30.5 30.6 C 31.1 30.6 31.5 30.2 31.5 29.6 L 31.5 28.2 C 31.5 27.6 31 27.2 30.5 27.2 Z " fill="rgb(255,255,255)"/><path d=" M 26.2 27.2 C 25.6 27.2 25.2 27.6 25.2 28.2 L 25.2 29.6 C 25.2 30.2 25.6 30.6 26.2 30.6 C 26.8 30.6 27.2 30.2 27.2 29.6 L 27.2 28.2 C 27.2 27.6 26.7 27.2 26.2 27.2 Z " fill="rgb(255,255,255)"/><path d=" M 34.7 33.1 C 34.1 33.1 33.7 33.5 33.7 34.1 L 33.7 35.5 C 33.7 36.1 34.1 36.5 34.7 36.5 C 35.3 36.5 35.7 36.1 35.7 35.5 L 35.7 34.1 C 35.7 33.6 35.3 33.1 34.7 33.1 Z " fill="rgb(255,255,255)"/><path d=" M 30.5 33.1 C 29.9 33.1 29.5 33.5 29.5 34.1 L 29.5 35.5 C 29.5 36.1 29.9 36.5 30.5 36.5 C 31.1 36.5 31.5 36.1 31.5 35.5 L 31.5 34.1 C 31.5 33.6 31 33.1 30.5 33.1 Z " fill="rgb(255,255,255)"/><path d=" M 26.2 33.1 C 25.6 33.1 25.2 33.5 25.2 34.1 L 25.2 35.5 C 25.2 36.1 25.6 36.5 26.2 36.5 C 26.8 36.5 27.2 36.1 27.2 35.5 L 27.2 34.1 C 27.2 33.6 26.7 33.1 26.2 33.1 Z " fill="rgb(255,255,255)"/><path d=" M 26.2 39 C 25.6 39 25.2 39.4 25.2 40 L 25.2 41.4 C 25.2 42 25.6 42.4 26.2 42.4 C 26.8 42.4 27.2 42 27.2 41.4 L 27.2 40 C 27.2 39.5 26.7 39 26.2 39 Z " fill="rgb(255,255,255)"/><path d=" M 26.2 44.9 C 25.6 44.9 25.2 45.3 25.2 45.9 L 25.2 47.3 C 25.2 47.9 25.6 48.3 26.2 48.3 C 26.8 48.3 27.2 47.9 27.2 47.3 L 27.2 45.9 C 27.2 45.4 26.7 44.9 26.2 44.9 Z " fill="rgb(255,255,255)"/><path d=" M 26.2 50.9 C 25.6 50.9 25.2 51.3 25.2 51.9 L 25.2 53.3 C 25.2 53.9 25.6 54.3 26.2 54.3 C 26.8 54.3 27.2 53.9 27.2 53.3 L 27.2 51.9 C 27.2 51.3 26.7 50.9 26.2 50.9 Z " fill="rgb(255,255,255)"/><path d=" M 26.2 56.8 C 25.6 56.8 25.2 57.2 25.2 57.8 L 25.2 59.2 C 25.2 59.8 25.6 60.2 26.2 60.2 C 26.8 60.2 27.2 59.8 27.2 59.2 L 27.2 57.8 C 27.2 57.2 26.7 56.8 26.2 56.8 Z " fill="rgb(255,255,255)"/><path d=" M 26.2 62.6 C 25.6 62.6 25.2 63 25.2 63.6 L 25.2 65 C 25.2 65.6 25.6 66 26.2 66 C 26.8 66 27.2 65.6 27.2 65 L 27.2 63.6 C 27.2 63 26.7 62.6 26.2 62.6 Z " fill="rgb(255,255,255)"/><path d=" M 26.2 68.5 C 25.6 68.5 25.2 68.9 25.2 69.5 L 25.2 70.9 C 25.2 71.5 25.6 71.9 26.2 71.9 C 26.8 71.9 27.2 71.5 27.2 70.9 L 27.2 69.5 C 27.2 68.9 26.7 68.5 26.2 68.5 Z " fill="rgb(255,255,255)"/><path d=" M 26.2 74.4 C 25.6 74.4 25.2 74.8 25.2 75.4 L 25.2 76.8 C 25.2 77.4 25.6 77.8 26.2 77.8 C 26.8 77.8 27.2 77.4 27.2 76.8 L 27.2 75.4 C 27.2 74.9 26.7 74.4 26.2 74.4 Z " fill="rgb(255,255,255)"/><path d=" M 62.4 31.7 C 61.8 31.7 61.4 32.1 61.4 32.7 L 61.4 33.8 C 61.4 34.4 61.8 34.8 62.4 34.8 C 63 34.8 63.4 34.4 63.4 33.8 L 63.4 32.7 C 63.4 32.2 63 31.7 62.4 31.7 Z " fill="rgb(255,255,255)"/><path d=" M 58.1 31.7 C 57.5 31.7 57.1 32.1 57.1 32.7 L 57.1 33.8 C 57.1 34.4 57.5 34.8 58.1 34.8 C 58.7 34.8 59.1 34.4 59.1 33.8 L 59.1 32.7 C 59.1 32.2 58.7 31.7 58.1 31.7 Z " fill="rgb(255,255,255)"/><path d=" M 53.9 31.7 C 53.3 31.7 52.9 32.1 52.9 32.7 L 52.9 33.8 C 52.9 34.4 53.3 34.8 53.9 34.8 C 54.5 34.8 54.9 34.4 54.9 33.8 L 54.9 32.7 C 54.9 32.2 54.4 31.7 53.9 31.7 Z " fill="rgb(255,255,255)"/><path d=" M 62.4 36.3 C 61.8 36.3 61.4 36.7 61.4 37.3 L 61.4 38.4 C 61.4 39 61.8 39.4 62.4 39.4 C 63 39.4 63.4 39 63.4 38.4 L 63.4 37.3 C 63.4 36.8 63 36.3 62.4 36.3 Z " fill="rgb(255,255,255)"/><path d=" M 58.1 36.3 C 57.5 36.3 57.1 36.7 57.1 37.3 L 57.1 38.4 C 57.1 39 57.5 39.4 58.1 39.4 C 58.7 39.4 59.1 39 59.1 38.4 L 59.1 37.3 C 59.1 36.8 58.7 36.3 58.1 36.3 Z " fill="rgb(255,255,255)"/><path d=" M 53.9 36.3 C 53.3 36.3 52.9 36.7 52.9 37.3 L 52.9 38.4 C 52.9 39 53.3 39.4 53.9 39.4 C 54.5 39.4 54.9 39 54.9 38.4 L 54.9 37.3 C 54.9 36.8 54.4 36.3 53.9 36.3 Z " fill="rgb(255,255,255)"/><path d=" M 62.4 40.9 C 61.8 40.9 61.4 41.3 61.4 41.9 L 61.4 43 C 61.4 43.6 61.8 44 62.4 44 C 63 44 63.4 43.6 63.4 43 L 63.4 41.9 C 63.4 41.4 63 40.9 62.4 40.9 Z " fill="rgb(255,255,255)"/><path d=" M 58.1 40.9 C 57.5 40.9 57.1 41.3 57.1 41.9 L 57.1 43 C 57.1 43.6 57.5 44 58.1 44 C 58.7 44 59.1 43.6 59.1 43 L 59.1 41.9 C 59.1 41.4 58.7 40.9 58.1 40.9 Z " fill="rgb(255,255,255)"/><path d=" M 53.9 40.9 C 53.3 40.9 52.9 41.3 52.9 41.9 L 52.9 43 C 52.9 43.6 53.3 44 53.9 44 C 54.5 44 54.9 43.6 54.9 43 L 54.9 41.9 C 54.9 41.4 54.4 40.9 53.9 40.9 Z " fill="rgb(255,255,255)"/><path d=" M 53.9 46.1 C 53.3 46.1 52.9 46.5 52.9 47.1 L 52.9 48.2 C 52.9 48.8 53.3 49.2 53.9 49.2 C 54.5 49.2 54.9 48.8 54.9 48.2 L 54.9 47.1 C 54.9 46.5 54.4 46.1 53.9 46.1 Z " fill="rgb(255,255,255)"/><path d=" M 53.9 50.7 C 53.3 50.7 52.9 51.1 52.9 51.7 L 52.9 52.8 C 52.9 53.4 53.3 53.8 53.9 53.8 C 54.5 53.8 54.9 53.4 54.9 52.8 L 54.9 51.7 C 54.9 51.1 54.4 50.7 53.9 50.7 Z " fill="rgb(255,255,255)"/><path d=" M 53.9 55.3 C 53.3 55.3 52.9 55.7 52.9 56.3 L 52.9 57.4 C 52.9 58 53.3 58.4 53.9 58.4 C 54.5 58.4 54.9 58 54.9 57.4 L 54.9 56.3 C 54.9 55.7 54.4 55.3 53.9 55.3 Z " fill="rgb(255,255,255)"/><path d=" M 53.9 59.9 C 53.3 59.9 52.9 60.3 52.9 60.9 L 52.9 62 C 52.9 62.6 53.3 63 53.9 63 C 54.5 63 54.9 62.6 54.9 62 L 54.9 60.9 C 54.9 60.3 54.4 59.9 53.9 59.9 Z " fill="rgb(255,255,255)"/><path d=" M 53.9 64.5 C 53.3 64.5 52.9 64.9 52.9 65.5 L 52.9 66.6 C 52.9 67.2 53.3 67.6 53.9 67.6 C 54.5 67.6 54.9 67.2 54.9 66.6 L 54.9 65.5 C 54.9 64.9 54.4 64.5 53.9 64.5 Z " fill="rgb(255,255,255)"/><path d=" M 53.9 69.1 C 53.3 69.1 52.9 69.5 52.9 70.1 L 52.9 71.2 C 52.9 71.8 53.3 72.2 53.9 72.2 C 54.5 72.2 54.9 71.8 54.9 71.2 L 54.9 70.1 C 54.9 69.5 54.4 69.1 53.9 69.1 Z " fill="rgb(255,255,255)"/><path d=" M 53.9 73.7 C 53.3 73.7 52.9 74.1 52.9 74.7 L 52.9 75.8 C 52.9 76.4 53.3 76.8 53.9 76.8 C 54.5 76.8 54.9 76.4 54.9 75.8 L 54.9 74.7 C 54.9 74.1 54.4 73.7 53.9 73.7 Z " fill="rgb(255,255,255)"/><path d=" M 35.5 70 L 44.6 70 C 45.2 70 45.6 69.6 45.6 69 C 45.6 68.4 45.2 68 44.6 68 L 35.5 68 C 34.9 68 34.5 68.4 34.5 69 C 34.5 69.6 34.9 70 35.5 70 Z " fill="rgb(255,255,255)"/><path d=" M 35.5 65.2 L 44.6 65.2 C 45.2 65.2 45.6 64.8 45.6 64.2 C 45.6 63.6 45.2 63.2 44.6 63.2 L 35.5 63.2 C 34.9 63.2 34.5 63.6 34.5 64.2 C 34.5 64.8 34.9 65.2 35.5 65.2 Z " fill="rgb(255,255,255)"/><path d=" M 35.5 60.5 L 44.6 60.5 C 45.2 60.5 45.6 60.1 45.6 59.5 C 45.6 58.9 45.2 58.5 44.6 58.5 L 35.5 58.5 C 34.9 58.5 34.5 58.9 34.5 59.5 C 34.5 60.1 34.9 60.5 35.5 60.5 Z " fill="rgb(255,255,255)"/><path d=" M 35.5 55.7 L 44.6 55.7 C 45.2 55.7 45.6 55.3 45.6 54.7 C 45.6 54.1 45.2 53.7 44.6 53.7 L 35.5 53.7 C 34.9 53.7 34.5 54.1 34.5 54.7 C 34.5 55.3 34.9 55.7 35.5 55.7 Z " fill="rgb(255,255,255)"/><path d=" M 35.5 51 L 44.6 51 C 45.2 51 45.6 50.6 45.6 50 C 45.6 49.4 45.2 49 44.6 49 L 35.5 49 C 34.9 49 34.5 49.4 34.5 50 C 34.5 50.6 34.9 51 35.5 51 Z " fill="rgb(255,255,255)"/><path d=" M 35.5 46.2 L 44.6 46.2 C 45.2 46.2 45.6 45.8 45.6 45.2 C 45.6 44.6 45.2 44.2 44.6 44.2 L 35.5 44.2 C 34.9 44.2 34.5 44.6 34.5 45.2 C 34.5 45.8 34.9 46.2 35.5 46.2 Z " fill="rgb(255,255,255)"/><path d=" M 58.3 21.2 L 67.4 21.2 C 68 21.2 68.4 20.8 68.4 20.2 C 68.4 19.6 68 19.2 67.4 19.2 L 58.3 19.2 C 57.7 19.2 57.3 19.6 57.3 20.2 C 57.3 20.8 57.8 21.2 58.3 21.2 Z " fill="rgb(255,255,255)"/><path d=" M 68.4 24.3 C 68.4 23.7 68 23.3 67.4 23.3 L 58.3 23.3 C 57.7 23.3 57.3 23.7 57.3 24.3 C 57.3 24.9 57.7 25.3 58.3 25.3 L 67.4 25.3 C 68 25.3 68.4 24.8 68.4 24.3 Z " fill="rgb(255,255,255)"/></g></svg>