<?xml version="1.0" standalone="no"?><!-- Generator: Gravit.io --><svg xmlns="http://www.w3.org/2000/svg" xmlns:xlink="http://www.w3.org/1999/xlink" style="isolation:isolate" viewBox="0 0 847 1058.75" width="847" height="1058.75"><defs><clipPath id="_clipPath_jBZ4yAwmVtphGWn98pcWPMLWQ96X1KAD"><rect width="847" height="1058.75"/></clipPath></defs><g clip-path="url(#_clipPath_jBZ4yAwmVtphGWn98pcWPMLWQ96X1KAD)"><g><rect x="76" y="765" width="694.318" height="77.602" transform="matrix(1,0,0,1,0,0)" fill="rgb(0,0,0)"/><path d=" M 423 151 C 515 151 592 218 606 306 L 241 306 C 255 218 331 151 423 151 Z " fill-rule="evenodd" fill="rgb(0,0,0)"/><rect x="438" y="7" width="105.792" height="65.557" transform="matrix(1,0,0,1,0,0)" fill="rgb(0,0,0)"/><path d=" M 431 4 L 431 132 L 416 132 L 416 4 L 431 4 Z " fill-rule="evenodd" fill="rgb(0,0,0)"/><path d=" M 159 329 L 688 329 L 688 744 L 159 744 L 159 329 L 159 329 Z  M 243 635 L 243 438 L 236 438 C 231 438 228 435 228 430 L 228 388 C 228 383 231 380 236 380 L 308 380 C 313 380 317 383 317 388 L 317 430 C 317 435 313 438 308 438 L 302 438 L 302 635 L 308 635 C 313 635 317 639 317 643 L 317 685 C 317 690 313 694 308 694 L 236 694 C 231 694 228 690 228 685 L 228 643 C 228 639 231 635 236 635 L 243 635 L 243 635 Z  M 394 635 L 394 438 L 387 438 C 383 438 379 435 379 430 L 379 388 C 379 383 383 380 387 380 L 459 380 C 464 380 468 383 468 388 L 468 430 C 468 435 464 438 459 438 L 453 438 L 453 635 L 459 635 C 464 635 468 639 468 643 L 468 685 C 468 690 464 694 459 694 L 387 694 C 383 694 379 690 379 685 L 379 643 C 379 639 383 635 387 635 L 394 635 L 394 635 Z  M 545 635 L 545 438 L 539 438 C 534 438 530 435 530 430 L 530 388 C 530 383 534 380 539 380 L 610 380 C 615 380 619 383 619 388 L 619 430 C 619 435 615 438 610 438 L 604 438 L 604 635 L 610 635 C 615 635 619 639 619 643 L 619 685 C 619 690 615 694 610 694 L 539 694 C 534 694 530 690 530 685 L 530 643 C 530 639 534 635 539 635 L 545 635 L 545 635 Z " fill-rule="evenodd" fill="rgb(0,0,0)"/></g></g></svg>