<?xml version="1.0" standalone="no"?><!-- Generator: Gravit.io --><svg xmlns="http://www.w3.org/2000/svg" xmlns:xlink="http://www.w3.org/1999/xlink" style="isolation:isolate" viewBox="0 0 100 125" width="100" height="125"><defs><clipPath id="_clipPath_UMENlY6tuQybAMlDV3JH151NnhDsHVK6"><rect width="100" height="125"/></clipPath></defs><g clip-path="url(#_clipPath_UMENlY6tuQybAMlDV3JH151NnhDsHVK6)"><g><path d=" M 50 60.606 C 49.82 60.606 49.641 60.57 49.472 60.494 L 30.838 52.411 L 30.838 71.607 C 30.838 72.652 31.689 73.504 32.734 73.504 L 70.132 73.504 C 71.179 73.504 72.029 72.652 72.029 71.607 L 72.029 51.167 L 50.528 60.494 C 50.36 60.569 50.181 60.606 50 60.606 Z " fill="none"/><path d=" M 18.842 56.323 C 18.954 56.197 19.087 55.98 19.087 55.676 C 19.087 55.131 18.644 54.688 18.099 54.688 C 17.555 54.688 17.113 55.131 17.113 55.676 C 17.113 55.968 17.242 56.245 17.468 56.435 C 17.83 56.736 18.004 57.206 17.926 57.673 L 16.559 65.768 L 19.689 65.768 L 18.53 57.375 C 18.476 56.995 18.591 56.612 18.842 56.323 Z " fill="none"/><path d=" M 10.352 40.633 L 18.856 44.322 L 44.737 40.907 C 45.262 39.615 47.347 38.702 50 38.702 C 53.075 38.702 55.394 39.928 55.394 41.548 C 55.394 43.171 53.075 44.397 50 44.397 C 48.316 44.397 46.863 44.027 45.888 43.43 L 23.584 46.372 L 50 57.832 L 90.002 40.479 L 49.296 26.581 C 43.003 28.963 19.951 37.636 10.352 40.633 Z " fill="none"/><path d=" M 54.068 41.548 C 54.068 40.931 52.483 40.03 50 40.03 C 47.516 40.03 45.931 40.93 45.931 41.548 C 45.931 42.171 47.516 43.072 50 43.072 C 52.483 43.072 54.068 42.172 54.068 41.548 Z " fill="none"/><path d=" M 94.103 39.076 L 49.701 23.918 C 49.409 23.816 49.092 23.822 48.803 23.933 C 33.601 29.689 8.635 38.865 6.317 39.003 C 5.693 39.009 5.155 39.449 5.028 40.06 C 4.902 40.677 5.222 41.298 5.799 41.548 L 17.339 46.553 L 17.339 52.118 C 15.697 52.467 14.461 53.928 14.461 55.675 C 14.461 56.479 14.724 57.247 15.202 57.873 L 13.683 66.872 C 13.618 67.257 13.726 67.652 13.977 67.947 C 14.229 68.245 14.6 68.42 14.99 68.42 L 21.211 68.42 C 21.594 68.42 21.959 68.254 22.211 67.965 C 22.463 67.676 22.577 67.29 22.524 66.911 L 21.229 57.53 C 21.562 56.973 21.74 56.331 21.74 55.675 C 21.74 54.362 21.038 53.211 19.992 52.573 L 19.992 47.703 L 28.187 51.26 L 28.187 71.606 C 28.187 74.115 30.227 76.153 32.735 76.153 L 70.133 76.153 C 72.642 76.153 74.682 74.114 74.682 71.606 L 74.682 50.016 L 94.203 41.547 C 94.706 41.327 95.022 40.824 95 40.276 C 94.977 39.729 94.621 39.253 94.103 39.076 Z  M 16.558 65.768 L 17.925 57.673 C 18.003 57.206 17.829 56.736 17.467 56.435 C 17.241 56.245 17.112 55.968 17.112 55.676 C 17.112 55.131 17.555 54.688 18.098 54.688 C 18.642 54.688 19.086 55.131 19.086 55.676 C 19.086 55.98 18.953 56.197 18.841 56.323 C 18.59 56.612 18.475 56.995 18.528 57.374 L 19.687 65.767 L 16.558 65.767 L 16.558 65.768 Z  M 72.029 71.607 C 72.029 72.652 71.179 73.504 70.132 73.504 L 32.734 73.504 C 31.689 73.504 30.838 72.652 30.838 71.607 L 30.838 52.411 L 49.472 60.494 C 49.64 60.569 49.82 60.606 50 60.606 C 50.181 60.606 50.36 60.57 50.528 60.494 L 72.029 51.167 L 72.029 71.607 L 72.029 71.607 Z  M 50 57.832 L 23.585 46.373 L 45.889 43.431 C 46.863 44.027 48.316 44.398 50.001 44.398 C 53.076 44.398 55.395 43.172 55.395 41.549 C 55.395 39.929 53.076 38.703 50.001 38.703 C 47.348 38.703 45.262 39.616 44.738 40.908 L 18.857 44.323 L 10.353 40.634 C 19.952 37.638 43.004 28.964 49.297 26.582 L 90.003 40.48 L 50 57.832 L 50 57.832 Z  M 45.932 41.548 C 45.932 40.931 47.517 40.03 50.001 40.03 C 52.484 40.03 54.069 40.93 54.069 41.548 C 54.069 42.171 52.484 43.072 50.001 43.072 C 47.517 43.072 45.932 42.172 45.932 41.548 Z " fill="rgb(0,0,0)"/></g></g></svg>