<?xml version="1.0" standalone="no"?><!-- Generator: Gravit.io --><svg xmlns="http://www.w3.org/2000/svg" xmlns:xlink="http://www.w3.org/1999/xlink" style="isolation:isolate" viewBox="0 0 100 125" width="100" height="125"><defs><clipPath id="_clipPath_L4Npbg2rhJnANxGvzH9VYOZPcEGBAIlK"><rect width="100" height="125"/></clipPath></defs><g clip-path="url(#_clipPath_L4Npbg2rhJnANxGvzH9VYOZPcEGBAIlK)"><path d=" M 89.5 43.5 L 81.974 43.5 C 79.466 31.587 68.116 22.898 54 21.657 L 54 16.5 L 65.5 16.5 L 62.5 11.5 L 65.5 6.5 L 47 6.5 L 47 21.656 C 32.885 22.898 21.534 31.587 19.026 43.5 L 11.5 43.5 L 11.5 50.5 L 89.5 50.5 L 89.5 43.5 L 89.5 43.5 Z " fill="rgb(239,164,56)"/><path d=" M 89.5 86.5 L 89.5 79.5 L 82.5 79.5 L 82.5 55.5 L 73.5 55.5 L 73.5 79.5 L 64.5 79.5 L 64.5 55.5 L 55.5 55.5 L 55.5 79.5 L 46.5 79.5 L 46.5 55.5 L 37.5 55.5 L 37.5 79.5 L 27.5 79.5 L 27.5 55.5 L 18.5 55.5 L 18.5 79.5 L 11.5 79.5 L 11.5 86.5 L 5.5 86.5 L 5.5 93.5 L 94.5 93.5 L 94.5 86.5 L 89.5 86.5 Z " fill="rgb(239,164,56)"/></g></svg>