<?xml version="1.0" standalone="no"?><!-- Generator: Gravit.io --><svg xmlns="http://www.w3.org/2000/svg" xmlns:xlink="http://www.w3.org/1999/xlink" style="isolation:isolate" viewBox="0 0 100 125" width="100" height="125"><defs><clipPath id="_clipPath_ehCPMae3HKmj76qX8itQ7Ts90n0CqkIG"><rect width="100" height="125"/></clipPath></defs><g clip-path="url(#_clipPath_ehCPMae3HKmj76qX8itQ7Ts90n0CqkIG)"><clipPath id="_clipPath_WtOR3wRuR2OkRuYPFC5F1y2gHg3OPNmW"><rect x="0" y="0" width="100" height="125" transform="matrix(1,0,0,1,0,0)" fill="rgb(255,255,255)"/></clipPath><g clip-path="url(#_clipPath_WtOR3wRuR2OkRuYPFC5F1y2gHg3OPNmW)"><g><clipPath id="_clipPath_6MIUCFm82t65kqMpQjpThk3welOGcrs3"><rect x="0" y="0" width="100" height="125" transform="matrix(1,0,0,1,0,0)" fill="rgb(255,255,255)"/></clipPath><g clip-path="url(#_clipPath_6MIUCFm82t65kqMpQjpThk3welOGcrs3)"><g><g><path d=" M 52.46 47.496 C 52.306 47.481 52.189 47.351 52.19 47.196 L 52.19 44.436 C 52.195 44.295 52.309 44.181 52.45 44.176 C 59.81 43.826 66 40.956 70.02 36.026 C 74.04 31.096 75.55 24.286 74.02 17.116 L 73.76 15.826 C 73.727 15.706 73.624 15.618 73.5 15.606 L 72.26 15.496 C 65.52 15.196 59.72 17.206 55.47 21.346 C 52.476 24.359 50.375 28.142 49.4 32.276 C 49.39 32.346 49.338 32.402 49.269 32.418 C 49.2 32.433 49.129 32.405 49.09 32.346 C 48.335 31.282 47.413 30.347 46.36 29.576 C 41.837 26.466 36.167 25.521 30.88 26.996 C 30.77 27.025 30.701 27.134 30.72 27.246 C 31 29.006 33.32 42.726 48 44.006 C 48.141 44.026 48.246 44.144 48.25 44.286 L 48.2 47.166 C 48.227 47.311 48.141 47.453 48 47.496 C 31.328 48.707 18.605 62.895 19.21 79.6 C 19.816 96.305 33.534 109.534 50.25 109.534 C 66.966 109.534 80.684 96.305 81.29 79.6 C 81.895 62.895 69.172 48.707 52.5 47.496 L 52.46 47.496 L 52.46 47.496 Z  M 58.23 24.196 C 61.481 21.138 65.787 19.455 70.25 19.496 C 70.392 19.49 70.514 19.595 70.53 19.736 C 71.309 24.614 70.031 29.596 67 33.496 C 64.694 36.342 61.383 38.287 57.587 39.387 C 55.878 39.881 54.351 40.075 52.6 40.176 C 52.531 40.182 52.463 40.158 52.413 40.11 C 52.364 40.062 52.337 39.995 52.34 39.926 C 52.54 33.176 54.57 27.756 58.23 24.186 L 58.23 24.196 Z  M 47.7 39.956 C 42.45 39.096 37.31 36.256 35.43 30.436 C 35.408 30.372 35.417 30.301 35.454 30.245 C 35.491 30.188 35.553 30.152 35.62 30.146 C 38.604 29.955 41.554 30.858 43.92 32.686 C 46.091 34.408 47.563 36.86 48.06 39.586 C 48.082 39.687 48.051 39.793 47.979 39.867 C 47.907 39.942 47.802 39.975 47.7 39.956 Z  M 50 105.496 C 39.018 105.5 29.117 98.886 24.915 88.74 C 20.713 78.594 23.04 66.915 30.81 59.155 C 38.579 51.394 50.26 49.08 60.401 53.292 C 70.543 57.505 77.146 67.414 77.13 78.396 C 77.108 93.365 64.969 105.491 50 105.496 L 50 105.496 L 50 105.496 Z " fill="rgb(255,255,255)"/><path d=" M 50 54.216 C 40.214 54.212 31.39 60.104 27.643 69.144 C 23.897 78.184 25.966 88.591 32.885 95.511 C 39.805 102.43 50.212 104.499 59.252 100.753 C 68.292 97.006 74.184 88.182 74.18 78.396 C 74.174 65.044 63.352 54.222 50 54.216 L 50 54.216 L 50 54.216 Z  M 56.15 83.916 C 55.768 84.602 55.226 85.185 54.57 85.616 C 53.821 86.056 53.002 86.367 52.15 86.536 C 51.982 86.552 51.815 86.579 51.65 86.616 L 51.65 87.896 C 51.65 88.316 51.85 89.236 50.31 89.236 L 49.31 89.236 C 48.31 89.236 47.85 88.896 47.85 88.066 L 47.85 86.806 C 47.85 86.806 46.85 86.706 46.07 86.556 C 45.54 86.48 45.036 86.277 44.6 85.966 C 43.84 85.476 44.21 81.716 45.32 82.386 C 45.723 82.663 46.152 82.901 46.6 83.096 C 47.447 83.402 48.34 83.561 49.24 83.566 C 49.697 83.571 50.153 83.524 50.6 83.426 C 50.956 83.357 51.295 83.221 51.6 83.026 C 51.842 82.889 52.043 82.688 52.18 82.446 C 52.312 82.222 52.381 81.966 52.38 81.706 C 52.389 81.348 52.28 80.997 52.07 80.706 C 51.834 80.402 51.551 80.138 51.23 79.926 C 50.838 79.677 50.427 79.46 50 79.276 C 49.52 79.056 49 78.836 48.43 78.596 C 47.194 78.145 46.091 77.392 45.22 76.406 C 44.498 75.525 44.118 74.414 44.15 73.276 C 44.123 72.422 44.316 71.575 44.71 70.816 C 45.082 70.136 45.61 69.553 46.25 69.116 C 46.718 68.745 47.237 68.442 47.79 68.216 C 47.93 68.216 47.92 68.086 47.92 68.046 L 47.92 66.496 C 47.92 66.236 48.17 65.886 48.71 65.886 L 50.96 65.886 C 51.41 65.886 51.69 66.116 51.69 66.436 L 51.69 67.726 C 51.69 67.811 51.756 67.881 51.84 67.886 C 52.24 67.886 53.35 67.966 53.84 68.046 C 54.52 68.124 55.19 68.272 55.84 68.486 C 56.083 68.589 56.246 68.822 56.26 69.086 L 56.26 71.326 C 56.221 71.545 56.087 71.735 55.893 71.843 C 55.699 71.952 55.467 71.967 55.26 71.886 L 55.07 71.886 C 54.702 71.717 54.32 71.576 53.93 71.466 C 53.551 71.37 53.167 71.296 52.78 71.246 C 52.419 71.189 52.055 71.159 51.69 71.156 C 51.256 71.153 50.823 71.2 50.4 71.296 C 50.046 71.358 49.706 71.487 49.4 71.676 C 49.153 71.821 48.941 72.019 48.78 72.256 C 48.635 72.483 48.562 72.747 48.57 73.016 C 48.566 73.31 48.65 73.599 48.81 73.846 C 48.993 74.119 49.227 74.353 49.5 74.536 C 49.842 74.783 50.207 74.998 50.59 75.176 C 51.01 75.376 51.5 75.606 52.04 75.826 C 52.731 76.107 53.4 76.442 54.04 76.826 C 54.596 77.139 55.101 77.533 55.54 77.996 C 55.971 78.419 56.312 78.926 56.54 79.486 C 56.786 80.123 56.901 80.803 56.88 81.486 C 56.841 82.344 56.59 83.179 56.15 83.916 L 56.15 83.916 L 56.15 83.916 Z " fill="rgb(255,255,255)"/></g></g></g></g></g></g></svg>