<?xml version="1.0" standalone="no"?><!-- Generator: Gravit.io --><svg xmlns="http://www.w3.org/2000/svg" xmlns:xlink="http://www.w3.org/1999/xlink" style="isolation:isolate" viewBox="0 0 96 120" width="96" height="120"><defs><clipPath id="_clipPath_EzFcLGBn6ElIugeZBr1XCSAV4YrJiEZj"><rect width="96" height="120"/></clipPath></defs><g clip-path="url(#_clipPath_EzFcLGBn6ElIugeZBr1XCSAV4YrJiEZj)"><clipPath id="_clipPath_MGgNruArKYSOToVi3hZ6UOGjSYD6X7M2"><rect x="0" y="0" width="96" height="120" transform="matrix(1,0,0,1,0,0)" fill="rgb(255,255,255)"/></clipPath><g clip-path="url(#_clipPath_MGgNruArKYSOToVi3hZ6UOGjSYD6X7M2)"><g><clipPath id="_clipPath_SXEPfqxTPwQCV6ZCjcNtOB36WehHoiKJ"><rect x="0" y="0" width="96" height="120" transform="matrix(1,0,0,1,0,0)" fill="rgb(255,255,255)"/></clipPath><g clip-path="url(#_clipPath_SXEPfqxTPwQCV6ZCjcNtOB36WehHoiKJ)"><g><g><path d=" M 81.645 41.849 C 81.615 41.689 81.542 41.544 81.439 41.426 L 80.984 40.642 C 80.962 40.604 80.936 40.567 80.909 40.532 C 74.038 28.943 61.44 21.75 48 21.75 C 34.561 21.75 21.963 28.942 15.092 40.529 C 15.063 40.566 15.036 40.605 15.013 40.645 L 14.48 41.564 C 14.441 41.633 14.411 41.706 14.392 41.782 C 11.355 47.374 9.75 53.669 9.75 60 C 9.75 60.565 9.767 61.158 9.801 61.82 C 9.8 61.847 9.801 61.873 9.802 61.9 L 9.858 62.821 C 9.861 62.867 9.866 62.911 9.876 62.954 C 10.433 70.236 13.046 77.154 17.44 82.982 C 17.469 83.043 17.507 83.103 17.551 83.159 L 18.288 84.078 C 18.313 84.109 18.339 84.137 18.367 84.166 C 25.673 93.117 36.468 98.25 48 98.25 C 59.532 98.25 70.325 93.12 77.629 84.169 C 77.66 84.139 77.688 84.108 77.715 84.074 L 78.448 83.158 C 78.492 83.103 78.529 83.044 78.557 82.984 C 82.952 77.156 85.566 70.238 86.123 62.956 C 86.132 62.913 86.138 62.868 86.141 62.823 L 86.198 61.899 C 86.201 61.863 86.201 61.827 86.198 61.792 C 86.23 61.153 86.25 60.553 86.25 60 C 86.25 53.695 84.658 47.426 81.645 41.849 Z  M 77.428 40.183 L 69.887 40.183 C 69.731 39.802 69.572 39.427 69.41 39.059 C 69.366 38.957 69.319 38.856 69.273 38.756 L 69.207 38.61 C 68.988 38.12 68.758 37.639 68.522 37.163 L 68.271 36.663 C 67.97 36.077 67.66 35.503 67.337 34.945 L 67.251 34.806 C 66.953 34.294 66.642 33.798 66.328 33.315 C 66.233 33.168 66.136 33.025 66.022 32.856 C 65.733 32.428 65.438 32.011 65.138 31.607 L 64.927 31.318 C 64.56 30.835 64.182 30.369 63.797 29.917 L 63.501 29.579 C 63.191 29.227 62.876 28.885 62.558 28.557 L 62.233 28.223 C 61.825 27.813 61.41 27.42 60.984 27.044 L 60.877 26.954 C 67.57 29.576 73.378 34.19 77.428 40.183 Z  M 59.506 60.921 C 59.509 60.615 59.51 60.308 59.51 60 C 59.51 59.195 59.503 58.393 59.49 57.591 L 59.465 56.582 C 59.454 56.121 59.443 55.66 59.425 55.205 L 59.367 53.858 C 59.352 53.518 59.338 53.178 59.319 52.838 L 59.252 51.744 C 59.227 51.331 59.201 50.917 59.173 50.511 C 59.152 50.216 59.127 49.924 59.103 49.631 L 58.985 48.218 C 58.959 47.932 58.929 47.651 58.901 47.37 L 58.845 46.823 C 58.816 46.537 58.786 46.25 58.755 45.969 L 58.371 42.95 L 67.969 42.95 C 67.995 43.025 68.021 43.1 68.047 43.174 L 68.191 43.593 C 68.269 43.813 68.347 44.034 68.419 44.261 C 68.508 44.536 68.589 44.816 68.669 45.095 L 68.862 45.75 C 68.923 45.957 68.986 46.164 69.042 46.375 C 69.127 46.689 69.202 47.007 69.279 47.325 L 69.422 47.914 C 69.475 48.125 69.528 48.335 69.576 48.552 C 69.646 48.869 69.707 49.19 69.768 49.511 L 69.897 50.166 C 69.938 50.368 69.979 50.57 70.014 50.774 C 70.069 51.082 70.114 51.392 70.159 51.703 L 70.272 52.456 C 70.303 52.649 70.332 52.843 70.358 53.038 C 70.41 53.433 70.449 53.831 70.49 54.229 L 70.549 54.786 C 70.569 54.968 70.591 55.151 70.607 55.337 C 70.646 55.792 70.672 56.249 70.698 56.707 L 70.731 57.245 C 70.742 57.382 70.751 57.52 70.757 57.659 C 70.79 58.437 70.808 59.218 70.808 60 C 70.808 60.308 70.802 60.615 70.794 60.921 L 59.506 60.921 L 59.506 60.921 L 59.506 60.921 Z  M 70.663 63.687 C 70.656 63.785 70.648 63.884 70.642 63.981 L 70.61 64.444 C 70.593 64.689 70.578 64.933 70.554 65.178 C 70.509 65.653 70.45 66.122 70.389 66.592 L 70.318 67.189 C 70.293 67.408 70.267 67.627 70.236 67.84 C 70.164 68.33 70.077 68.814 69.989 69.297 L 69.899 69.818 C 69.864 70.029 69.829 70.24 69.789 70.448 C 69.68 70.996 69.552 71.534 69.424 72.073 L 69.316 72.552 C 69.284 72.696 69.253 72.84 69.215 72.986 C 69.001 73.835 68.766 74.661 68.517 75.453 L 68.411 75.764 C 68.189 76.459 67.954 77.147 67.701 77.82 C 67.643 77.977 67.578 78.129 67.515 78.281 L 67.307 78.785 C 67.131 79.228 66.954 79.67 66.761 80.104 C 66.682 80.283 66.597 80.457 66.511 80.631 L 66.226 81.222 C 66.156 81.369 66.087 81.516 66.015 81.663 L 57.593 81.663 L 57.767 80.771 C 57.845 80.346 57.918 79.911 57.999 79.426 L 58.056 79.098 C 58.095 78.868 58.135 78.638 58.172 78.402 C 58.24 77.963 58.303 77.514 58.366 77.066 L 58.526 75.938 C 58.592 75.426 58.652 74.903 58.712 74.38 L 58.824 73.398 C 59.003 71.706 59.151 69.911 59.266 68.065 L 59.303 67.351 C 59.339 66.677 59.374 66.002 59.4 65.323 C 59.41 65.1 59.416 64.874 59.421 64.649 L 59.438 64.097 C 59.443 63.962 59.447 63.825 59.452 63.69 L 70.663 63.69 L 70.663 63.687 L 70.663 63.687 Z  M 53.479 25.589 C 53.657 25.66 53.836 25.73 54.012 25.806 C 54.293 25.927 54.57 26.06 54.844 26.197 L 55 26.273 C 55.111 26.328 55.221 26.382 55.329 26.439 C 55.642 26.607 55.95 26.79 56.265 26.984 L 56.621 27.195 C 57.047 27.47 57.469 27.763 57.88 28.072 L 58.095 28.248 C 58.437 28.512 58.775 28.786 59.111 29.079 C 59.2 29.156 59.287 29.238 59.374 29.32 L 59.521 29.457 C 59.784 29.697 60.045 29.941 60.302 30.198 C 60.434 30.331 60.564 30.469 60.748 30.663 C 60.987 30.914 61.222 31.169 61.455 31.435 C 61.604 31.604 61.751 31.778 61.898 31.954 C 62.127 32.227 62.351 32.509 62.57 32.791 L 62.648 32.894 C 62.761 33.04 62.874 33.187 62.988 33.344 C 63.217 33.652 63.439 33.972 63.659 34.295 L 63.765 34.45 C 63.852 34.577 63.939 34.702 64.022 34.828 C 64.271 35.216 64.516 35.616 64.758 36.023 L 64.999 36.418 C 65.316 36.969 65.623 37.536 65.919 38.123 L 66.062 38.422 C 66.304 38.908 66.54 39.402 66.766 39.914 C 66.806 40.002 66.844 40.091 66.882 40.181 L 57.941 40.181 C 57.887 39.868 57.833 39.56 57.776 39.257 L 57.699 38.856 C 57.604 38.353 57.506 37.858 57.406 37.371 L 57.279 36.788 C 57.183 36.35 57.086 35.922 56.987 35.507 L 56.869 35.016 C 56.733 34.457 56.591 33.911 56.444 33.384 L 56.362 33.109 C 56.24 32.674 56.113 32.251 55.982 31.831 L 55.832 31.368 C 55.715 31.009 55.595 30.659 55.474 30.32 L 55.332 29.921 C 55.163 29.471 54.996 29.036 54.822 28.629 L 54.731 28.423 C 54.582 28.074 54.43 27.739 54.276 27.421 L 54.099 27.061 C 53.961 26.788 53.819 26.525 53.677 26.268 L 53.512 25.973 C 53.416 25.808 53.318 25.646 53.22 25.489 C 53.307 25.522 53.394 25.555 53.479 25.589 Z  M 39.26 60.921 C 39.257 60.615 39.254 60.308 39.254 60 C 39.254 59.208 39.262 58.418 39.275 57.631 L 39.3 56.623 C 39.311 56.176 39.321 55.728 39.338 55.284 L 39.39 54.105 C 39.406 53.723 39.422 53.339 39.442 52.961 L 39.524 51.641 C 39.544 51.316 39.564 50.992 39.587 50.672 L 39.696 49.354 C 39.721 49.041 39.745 48.726 39.773 48.419 L 39.899 47.17 C 39.932 46.85 39.963 46.529 39.999 46.212 L 40.154 44.934 C 40.189 44.643 40.224 44.353 40.262 44.067 C 40.298 43.803 40.336 43.544 40.374 43.284 L 40.421 42.959 L 55.574 42.948 L 55.731 44.045 C 55.774 44.365 55.814 44.689 55.854 45.015 L 55.996 46.194 C 56.042 46.598 56.083 47.011 56.129 47.472 L 56.223 48.401 C 56.255 48.741 56.282 49.085 56.31 49.429 L 56.409 50.655 C 56.434 51.011 56.457 51.372 56.479 51.732 L 56.555 52.95 C 56.575 53.332 56.592 53.717 56.609 54.102 L 56.661 55.277 C 56.678 55.749 56.688 56.222 56.7 56.697 L 56.723 57.63 C 56.738 58.417 56.744 59.206 56.744 59.998 C 56.744 60.306 56.741 60.613 56.738 60.919 L 39.26 60.919 L 39.26 60.921 L 39.26 60.921 Z  M 56.686 63.686 C 56.685 63.719 56.684 63.753 56.683 63.786 L 56.638 65.264 C 56.625 65.571 56.61 65.874 56.594 66.178 L 56.503 67.96 C 56.482 68.32 56.455 68.673 56.429 69.028 L 56.314 70.592 C 56.272 71.092 56.224 71.581 56.176 72.071 L 56.149 72.357 C 56.101 72.843 56.051 73.326 55.995 73.807 C 55.926 74.418 55.858 75.027 55.782 75.619 C 55.749 75.868 55.714 76.111 55.678 76.353 L 55.606 76.851 C 55.55 77.247 55.496 77.642 55.436 78.027 C 55.402 78.238 55.366 78.445 55.331 78.652 L 55.205 79.388 C 55.15 79.71 55.097 80.03 55.039 80.342 C 54.993 80.591 54.943 80.831 54.894 81.073 L 54.79 81.594 C 54.785 81.615 54.781 81.638 54.776 81.659 L 41.224 81.659 C 41.2 81.538 41.176 81.417 41.151 81.296 L 40.963 80.355 C 40.892 79.973 40.827 79.582 40.761 79.189 L 40.666 78.636 C 40.632 78.441 40.598 78.246 40.568 78.044 C 40.482 77.496 40.404 76.935 40.327 76.373 L 40.222 75.635 C 40.008 73.999 39.827 72.295 39.685 70.571 L 39.609 69.548 C 39.568 69.013 39.528 68.476 39.495 67.932 L 39.429 66.665 C 39.404 66.19 39.38 65.717 39.36 65.236 L 39.326 64.138 C 39.321 63.986 39.317 63.835 39.312 63.684 L 56.686 63.684 L 56.686 63.686 L 56.686 63.686 Z  M 42.965 31.767 C 43.016 31.613 43.067 31.459 43.121 31.309 C 43.193 31.103 43.269 30.909 43.344 30.714 L 43.441 30.456 C 43.499 30.302 43.557 30.146 43.616 30 C 43.682 29.837 43.75 29.683 43.817 29.53 L 43.966 29.189 C 44.019 29.063 44.073 28.939 44.127 28.821 C 44.193 28.678 44.262 28.544 44.329 28.412 L 44.486 28.097 C 44.541 27.986 44.595 27.874 44.652 27.769 C 44.717 27.648 44.784 27.535 44.852 27.423 L 45.021 27.133 C 45.074 27.043 45.124 26.952 45.181 26.864 C 45.246 26.762 45.312 26.67 45.378 26.577 L 45.567 26.306 C 45.615 26.236 45.662 26.167 45.712 26.101 C 45.781 26.012 45.851 25.933 45.921 25.854 L 46.106 25.64 C 46.148 25.589 46.19 25.539 46.233 25.495 C 46.302 25.423 46.373 25.363 46.443 25.302 L 46.642 25.122 C 46.674 25.093 46.704 25.062 46.74 25.034 C 46.805 24.983 46.87 24.945 46.935 24.907 C 46.938 24.904 47.019 24.854 47.024 24.852 L 47.203 24.732 C 47.277 24.694 47.354 24.671 47.494 24.622 C 47.513 24.615 47.602 24.576 47.62 24.566 C 47.883 24.497 48.137 24.5 48.362 24.564 C 48.413 24.586 48.465 24.607 48.576 24.645 C 48.65 24.671 48.727 24.694 48.853 24.768 L 49.075 24.911 C 49.136 24.949 49.2 24.985 49.268 25.039 C 49.303 25.066 49.336 25.1 49.371 25.132 L 49.559 25.302 C 49.627 25.362 49.696 25.42 49.765 25.492 C 49.809 25.537 49.852 25.59 49.896 25.643 L 50.076 25.854 C 50.147 25.934 50.218 26.013 50.289 26.107 C 50.336 26.167 50.382 26.236 50.427 26.303 L 50.6 26.551 C 50.672 26.652 50.744 26.754 50.82 26.873 C 50.875 26.956 50.926 27.048 50.979 27.141 L 51.135 27.406 C 51.206 27.526 51.278 27.646 51.346 27.773 L 51.66 28.396 C 51.73 28.534 51.8 28.673 51.872 28.83 C 51.928 28.947 51.982 29.073 52.036 29.199 L 52.172 29.513 C 52.243 29.673 52.313 29.835 52.383 30.005 C 52.437 30.137 52.488 30.276 52.54 30.415 L 52.61 30.602 C 52.701 30.836 52.79 31.065 52.878 31.313 C 52.931 31.462 52.982 31.619 53.034 31.774 L 53.096 31.961 C 53.184 32.219 53.269 32.474 53.356 32.749 C 53.407 32.906 53.454 33.07 53.501 33.234 L 53.622 33.644 C 53.685 33.856 53.749 34.067 53.808 34.285 C 53.874 34.53 53.94 34.785 54.008 35.047 C 54.087 35.344 54.164 35.639 54.239 35.947 C 54.291 36.158 54.34 36.376 54.39 36.594 L 54.462 36.911 C 54.522 37.173 54.583 37.436 54.64 37.704 C 54.7 37.989 54.759 38.282 54.817 38.576 L 55.014 39.569 C 55.052 39.77 55.088 39.976 55.124 40.182 L 40.872 40.182 C 40.908 39.976 40.944 39.771 40.981 39.57 C 41.037 39.276 41.095 38.99 41.152 38.704 L 41.212 38.404 C 41.259 38.169 41.306 37.933 41.355 37.705 L 41.565 36.772 C 41.627 36.492 41.692 36.211 41.757 35.941 C 41.821 35.677 41.888 35.422 41.955 35.168 L 42.034 34.863 C 42.085 34.667 42.135 34.472 42.188 34.283 C 42.255 34.039 42.325 33.805 42.395 33.57 L 42.498 33.221 C 42.546 33.058 42.594 32.896 42.643 32.739 C 42.705 32.542 42.769 32.353 42.832 32.163 L 42.965 31.767 L 42.965 31.767 L 42.965 31.767 Z  M 35.703 30.191 C 35.954 29.94 36.21 29.7 36.468 29.463 L 36.624 29.319 C 36.712 29.237 36.801 29.154 36.892 29.074 C 37.219 28.789 37.551 28.52 37.884 28.262 L 38.117 28.073 C 38.531 27.761 38.951 27.469 39.373 27.197 C 39.441 27.154 39.51 27.113 39.58 27.072 L 39.745 26.975 C 40.05 26.789 40.355 26.606 40.665 26.439 C 40.78 26.378 40.895 26.322 41.011 26.265 L 41.158 26.193 C 41.432 26.057 41.709 25.924 41.979 25.807 C 42.159 25.73 42.34 25.66 42.519 25.589 C 42.606 25.555 42.693 25.522 42.781 25.49 C 42.683 25.647 42.586 25.808 42.489 25.973 L 42.324 26.27 C 42.182 26.523 42.043 26.786 41.904 27.06 L 41.725 27.421 C 41.571 27.741 41.42 28.075 41.238 28.496 L 41.182 28.622 C 41.008 29.036 40.839 29.471 40.671 29.922 L 40.53 30.32 C 40.408 30.659 40.289 31.007 40.171 31.367 L 40.018 31.838 C 39.888 32.251 39.761 32.678 39.637 33.118 L 39.559 33.383 C 39.412 33.91 39.271 34.457 39.132 35.018 L 39.017 35.497 C 38.916 35.923 38.815 36.358 38.72 36.804 L 38.598 37.366 C 38.493 37.87 38.391 38.385 38.291 38.912 L 38.229 39.236 C 38.171 39.547 38.115 39.864 38.06 40.182 L 29.118 40.182 C 29.157 40.087 29.198 39.992 29.239 39.898 C 29.451 39.42 29.674 38.957 29.899 38.5 L 30.086 38.112 C 30.379 37.535 30.683 36.974 30.997 36.428 L 31.27 35.979 C 31.5 35.592 31.731 35.21 31.972 34.84 C 32.052 34.717 32.135 34.597 32.217 34.477 L 32.355 34.274 C 32.569 33.96 32.784 33.651 33.003 33.353 C 33.146 33.16 33.291 32.971 33.437 32.783 C 33.654 32.502 33.874 32.227 34.096 31.959 C 34.247 31.779 34.399 31.601 34.549 31.427 C 34.778 31.167 35.01 30.915 35.28 30.63 C 35.419 30.485 35.558 30.335 35.703 30.191 Z  M 36.495 60.921 L 25.207 60.921 C 25.199 60.615 25.194 60.308 25.194 60 C 25.194 59.218 25.211 58.437 25.245 57.659 C 25.251 57.518 25.261 57.377 25.271 57.236 L 25.305 56.717 C 25.33 56.256 25.356 55.795 25.396 55.335 C 25.411 55.147 25.433 54.961 25.454 54.774 L 25.528 54.081 C 25.563 53.734 25.598 53.386 25.643 53.038 C 25.669 52.831 25.702 52.625 25.735 52.42 L 25.836 51.75 C 25.884 51.423 25.931 51.097 25.987 50.774 C 26.026 50.555 26.07 50.338 26.114 50.122 L 26.248 49.438 C 26.305 49.141 26.363 48.844 26.426 48.553 C 26.477 48.326 26.532 48.102 26.588 47.878 L 26.726 47.314 C 26.801 47 26.876 46.685 26.958 46.378 C 27.017 46.16 27.081 45.947 27.144 45.734 L 27.329 45.101 C 27.411 44.819 27.493 44.537 27.581 44.26 C 27.653 44.035 27.731 43.815 27.809 43.594 L 27.982 43.096 C 28 43.046 28.016 42.996 28.034 42.947 L 37.631 42.947 L 37.626 42.978 C 37.59 43.233 37.553 43.489 37.519 43.747 C 37.475 44.073 37.435 44.403 37.394 44.735 L 37.019 48.195 C 36.981 48.611 36.947 49.032 36.911 49.486 L 36.831 50.491 C 36.802 50.887 36.778 51.286 36.755 51.686 L 36.684 52.83 C 36.664 53.196 36.649 53.564 36.633 53.933 L 36.578 55.198 C 36.559 55.72 36.547 56.248 36.535 56.772 L 36.514 57.589 C 36.5 58.389 36.493 59.192 36.493 59.996 C 36.491 60.307 36.493 60.615 36.495 60.921 Z  M 36.545 63.686 C 36.545 63.699 36.546 63.711 36.546 63.724 L 36.573 64.602 C 36.579 64.85 36.587 65.098 36.597 65.343 C 36.616 65.838 36.642 66.327 36.669 66.817 L 36.733 68.085 C 36.78 68.85 36.835 69.606 36.895 70.356 L 36.924 70.773 C 36.998 71.653 37.079 72.523 37.171 73.382 L 37.286 74.372 C 37.346 74.894 37.405 75.417 37.472 75.93 L 37.645 77.155 C 37.704 77.571 37.762 77.987 37.826 78.394 C 37.862 78.631 37.902 78.862 37.942 79.092 L 38.015 79.525 C 38.086 79.946 38.156 80.366 38.232 80.775 C 38.281 81.038 38.332 81.294 38.383 81.551 L 38.405 81.659 L 29.982 81.659 C 29.913 81.517 29.846 81.373 29.777 81.23 L 29.509 80.674 C 29.415 80.482 29.321 80.291 29.234 80.095 C 29.051 79.684 28.882 79.261 28.713 78.839 L 28.491 78.295 C 28.423 78.135 28.356 77.976 28.295 77.814 C 28.045 77.15 27.815 76.47 27.594 75.781 L 27.477 75.441 C 27.23 74.654 26.996 73.827 26.781 72.985 C 26.742 72.834 26.709 72.68 26.676 72.526 L 26.554 71.991 C 26.434 71.48 26.313 70.97 26.209 70.451 C 26.167 70.241 26.132 70.028 26.096 69.815 L 25.965 69.062 C 25.893 68.661 25.822 68.259 25.763 67.851 C 25.726 67.601 25.696 67.345 25.667 67.091 L 25.576 66.345 C 25.528 65.963 25.481 65.58 25.444 65.191 C 25.417 64.912 25.399 64.631 25.38 64.348 L 25.345 63.836 C 25.341 63.786 25.338 63.737 25.334 63.686 L 36.545 63.686 L 36.545 63.686 L 36.545 63.686 Z  M 35.125 26.953 L 35.014 27.047 C 34.59 27.42 34.175 27.814 33.766 28.223 L 33.448 28.55 C 33.125 28.883 32.808 29.227 32.494 29.585 L 32.204 29.914 C 31.818 30.367 31.438 30.835 31.072 31.318 L 30.873 31.591 C 30.566 32.003 30.266 32.429 29.971 32.866 L 29.682 33.302 C 29.356 33.801 29.037 34.31 28.73 34.835 C 28.73 34.836 28.667 34.94 28.667 34.94 C 28.341 35.502 28.029 36.083 27.724 36.675 L 27.489 37.146 C 27.245 37.633 27.01 38.13 26.781 38.64 L 26.599 39.04 C 26.434 39.417 26.272 39.798 26.116 40.184 L 18.574 40.184 C 22.621 34.191 28.43 29.575 35.125 26.953 Z  M 12.515 60 C 12.515 54.042 14.024 48.159 16.884 42.948 L 25.107 42.948 C 25.039 43.148 24.972 43.349 24.907 43.551 C 24.79 43.924 24.681 44.301 24.547 44.763 L 24.49 44.96 C 24.41 45.23 24.332 45.5 24.258 45.775 C 24.151 46.181 24.052 46.594 23.947 47.036 L 23.881 47.309 C 23.821 47.557 23.76 47.804 23.704 48.055 C 23.628 48.406 23.56 48.761 23.492 49.115 L 23.378 49.7 C 23.334 49.926 23.289 50.152 23.249 50.382 C 23.185 50.758 23.129 51.137 23.074 51.515 L 22.99 52.077 C 22.956 52.299 22.922 52.521 22.893 52.746 C 22.844 53.132 22.804 53.522 22.764 53.911 L 22.7 54.529 C 22.677 54.734 22.655 54.939 22.637 55.143 C 22.595 55.642 22.566 56.143 22.539 56.646 L 22.511 57.077 C 22.5 57.238 22.489 57.4 22.481 57.564 C 22.446 58.374 22.429 59.188 22.429 60.001 C 22.429 60.309 22.432 60.617 22.438 60.923 L 12.53 60.923 C 12.52 60.6 12.515 60.297 12.515 60 Z  M 19.9 81.658 C 15.859 76.428 13.388 70.242 12.712 63.686 L 22.56 63.686 C 22.565 63.759 22.572 63.833 22.577 63.906 L 22.638 64.731 C 22.653 64.952 22.668 65.173 22.688 65.393 C 22.751 66.073 22.837 66.745 22.925 67.415 L 22.961 67.72 C 22.977 67.87 22.994 68.019 23.016 68.169 C 23.151 69.107 23.308 70.024 23.479 70.888 C 23.494 70.97 23.513 71.051 23.532 71.132 L 23.566 71.286 C 23.723 72.048 23.889 72.804 24.076 73.547 C 24.122 73.733 24.175 73.915 24.227 74.099 L 24.361 74.579 C 24.502 75.099 24.644 75.619 24.802 76.129 C 24.876 76.364 24.955 76.594 25.034 76.825 L 25.175 77.241 C 25.329 77.706 25.485 78.17 25.655 78.628 C 25.744 78.867 25.839 79.102 25.934 79.337 L 26.128 79.818 C 26.292 80.227 26.457 80.637 26.634 81.041 C 26.726 81.249 26.822 81.454 26.918 81.658 L 19.9 81.658 L 19.9 81.658 L 19.9 81.658 Z  M 22.27 84.424 L 28.312 84.424 C 28.572 84.894 28.837 85.355 29.112 85.807 C 29.237 86.011 29.363 86.212 29.491 86.413 C 29.784 86.873 30.083 87.32 30.389 87.755 L 30.496 87.911 C 30.572 88.021 30.647 88.13 30.724 88.236 C 31.154 88.828 31.586 89.384 32.002 89.883 C 32.056 89.949 32.111 90.01 32.166 90.072 L 32.258 90.174 C 32.623 90.602 32.995 91.014 33.375 91.411 C 33.522 91.565 33.672 91.716 33.822 91.864 C 34.166 92.208 34.516 92.536 34.87 92.852 L 35 92.97 C 35.034 93 35.068 93.032 35.102 93.063 C 30.274 91.17 25.871 88.216 22.27 84.424 Z  M 42.746 94.519 C 42.509 94.431 42.272 94.34 42.03 94.235 C 41.886 94.175 41.743 94.111 41.599 94.046 C 41.362 93.938 41.127 93.822 40.898 93.704 L 40.49 93.493 C 40.229 93.349 39.971 93.197 39.709 93.035 L 39.4 92.85 C 39.041 92.622 38.685 92.38 38.266 92.069 L 38.17 91.995 C 37.875 91.775 37.582 91.544 37.292 91.303 L 36.95 91.005 C 36.721 90.806 36.494 90.603 36.269 90.393 C 36.145 90.277 36.022 90.156 35.899 90.034 C 35.686 89.825 35.475 89.61 35.269 89.393 L 34.906 89.005 C 34.689 88.764 34.476 88.519 34.262 88.267 L 33.948 87.896 C 33.685 87.574 33.428 87.241 33.177 86.905 L 33.031 86.715 C 32.731 86.308 32.438 85.887 32.152 85.453 L 31.901 85.058 C 31.766 84.849 31.633 84.638 31.501 84.424 L 38.993 84.424 C 39.042 84.628 39.093 84.838 39.149 85.064 L 39.18 85.184 C 39.285 85.608 39.393 86.02 39.504 86.424 L 39.606 86.796 C 39.724 87.217 39.845 87.628 39.975 88.05 C 39.976 88.056 40 88.134 40.002 88.14 C 40.136 88.573 40.274 88.987 40.415 89.395 L 40.522 89.699 C 40.638 90.025 40.755 90.341 40.896 90.704 L 40.97 90.894 C 41.118 91.266 41.267 91.624 41.424 91.978 L 41.51 92.161 C 41.637 92.445 41.768 92.717 41.898 92.976 L 42.028 93.233 C 42.189 93.544 42.352 93.846 42.487 94.072 C 42.498 94.093 42.51 94.116 42.522 94.136 C 42.601 94.27 42.68 94.399 42.76 94.524 C 42.756 94.523 42.751 94.521 42.746 94.519 Z  M 52.967 88.477 C 52.909 88.647 52.849 88.81 52.767 89.031 C 52.695 89.228 52.623 89.425 52.551 89.613 L 52.123 90.658 C 52.053 90.82 51.982 90.972 51.911 91.125 L 51.393 92.168 C 51.341 92.266 51.29 92.364 51.236 92.46 C 51.182 92.556 51.128 92.645 51.074 92.735 L 50.935 92.966 C 50.885 93.049 50.836 93.132 50.787 93.207 C 50.731 93.294 50.675 93.374 50.618 93.454 L 50.484 93.643 C 50.433 93.716 50.384 93.788 50.335 93.854 C 50.286 93.917 50.236 93.976 50.187 94.034 L 50.018 94.236 C 49.977 94.288 49.936 94.339 49.891 94.387 C 49.825 94.458 49.759 94.52 49.653 94.621 L 49.569 94.705 C 49.532 94.742 49.495 94.78 49.467 94.804 C 49.411 94.852 49.357 94.893 49.3 94.933 L 49.22 94.992 C 49.217 94.996 49.147 95.05 49.144 95.052 C 49.113 95.075 49.085 95.101 49.042 95.129 C 48.998 95.157 48.953 95.178 48.91 95.2 L 48.814 95.251 C 48.806 95.256 48.679 95.328 48.673 95.332 C 48.615 95.357 48.557 95.372 48.441 95.406 C 48.423 95.411 48.342 95.442 48.324 95.448 C 48.101 95.497 47.888 95.497 47.688 95.448 L 47.5 95.389 C 47.442 95.372 47.384 95.358 47.289 95.31 L 47.184 95.252 C 47.182 95.251 47.103 95.21 47.1 95.208 C 47.051 95.183 47.001 95.158 46.947 95.124 L 46.688 94.927 C 46.637 94.889 46.586 94.853 46.544 94.816 L 46.264 94.543 C 46.212 94.493 46.159 94.445 46.108 94.388 C 46.065 94.341 46.023 94.29 45.981 94.237 L 45.872 94.106 C 45.801 94.023 45.73 93.94 45.662 93.852 C 45.619 93.796 45.577 93.735 45.535 93.674 L 45.393 93.471 C 45.333 93.387 45.273 93.302 45.215 93.212 C 45.161 93.13 45.109 93.041 45.056 92.953 L 44.923 92.731 C 44.869 92.644 44.816 92.557 44.763 92.461 C 44.711 92.368 44.659 92.269 44.607 92.169 L 44.499 91.963 C 44.439 91.848 44.379 91.734 44.317 91.607 C 44.252 91.477 44.189 91.338 44.1 91.144 L 44.053 91.044 C 43.995 90.917 43.936 90.792 43.879 90.658 C 43.816 90.515 43.756 90.366 43.695 90.216 C 43.695 90.216 43.636 90.071 43.635 90.07 C 43.573 89.92 43.51 89.768 43.449 89.609 C 43.393 89.466 43.339 89.317 43.285 89.167 L 43.241 89.047 C 43.17 88.857 43.101 88.666 43.032 88.467 C 42.967 88.278 42.902 88.082 42.828 87.86 L 42.627 87.235 C 42.56 87.023 42.495 86.802 42.43 86.579 L 42.403 86.487 C 42.347 86.299 42.292 86.111 42.239 85.917 C 42.175 85.69 42.112 85.455 42.051 85.22 L 41.866 84.509 C 41.859 84.481 41.852 84.452 41.845 84.424 L 54.159 84.424 C 54.151 84.453 54.144 84.482 54.137 84.511 C 54.083 84.725 54.029 84.933 53.952 85.22 C 53.891 85.456 53.827 85.691 53.764 85.918 L 53.575 86.571 C 53.51 86.796 53.443 87.021 53.374 87.241 L 53.177 87.846 C 53.109 88.055 53.041 88.268 52.967 88.477 Z  M 60.11 90.023 C 59.98 90.151 59.852 90.275 59.721 90.398 C 59.504 90.603 59.283 90.798 59.057 90.994 L 58.702 91.304 C 58.422 91.538 58.14 91.758 57.849 91.976 L 57.661 92.124 C 57.313 92.378 56.959 92.619 56.597 92.85 L 56.278 93.042 C 56.025 93.196 55.771 93.347 55.509 93.49 C 55.391 93.555 55.271 93.616 55.102 93.701 C 54.868 93.821 54.634 93.937 54.396 94.046 C 54.254 94.112 54.11 94.175 53.963 94.236 C 53.735 94.332 53.505 94.423 53.235 94.524 C 53.315 94.397 53.396 94.266 53.478 94.127 C 53.645 93.844 53.808 93.541 53.968 93.233 L 54.101 92.972 C 54.231 92.713 54.359 92.444 54.512 92.107 L 54.578 91.962 C 54.73 91.621 54.879 91.263 55.02 90.906 L 55.126 90.633 C 55.243 90.331 55.358 90.021 55.47 89.704 L 55.584 89.384 C 55.722 88.98 55.859 88.57 55.987 88.154 L 56.038 87.994 C 56.155 87.609 56.272 87.209 56.385 86.805 L 56.496 86.403 C 56.6 86.02 56.704 85.629 56.825 85.142 L 56.872 84.958 C 56.915 84.78 56.959 84.6 57.002 84.419 L 64.496 84.419 C 64.37 84.622 64.244 84.822 64.117 85.021 L 63.839 85.456 C 63.556 85.886 63.267 86.302 62.965 86.711 L 62.789 86.94 C 62.546 87.264 62.303 87.581 62.058 87.881 L 61.716 88.285 C 61.513 88.527 61.31 88.762 61.103 88.989 C 60.978 89.126 60.854 89.258 60.722 89.396 C 60.519 89.612 60.314 89.821 60.11 90.023 Z  M 60.893 93.065 C 60.929 93.033 60.964 93.001 60.999 92.969 L 61.117 92.862 C 61.479 92.54 61.834 92.207 62.181 91.859 C 62.329 91.713 62.477 91.565 62.621 91.415 C 63.005 91.012 63.383 90.598 63.752 90.163 L 63.991 89.892 C 64.41 89.388 64.829 88.848 65.278 88.236 L 65.61 87.76 C 65.917 87.322 66.218 86.873 66.509 86.415 C 66.638 86.213 66.764 86.011 66.892 85.802 C 67.162 85.356 67.426 84.899 67.689 84.425 L 73.731 84.425 C 70.129 88.219 65.725 91.173 60.893 93.065 Z  M 76.099 81.659 L 69.082 81.659 C 69.177 81.454 69.274 81.249 69.366 81.04 C 69.567 80.583 69.754 80.115 69.938 79.653 L 70.034 79.417 C 70.141 79.156 70.247 78.895 70.348 78.625 C 70.518 78.166 70.674 77.698 70.83 77.229 L 70.979 76.788 C 71.055 76.569 71.131 76.348 71.198 76.128 C 71.363 75.604 71.507 75.069 71.667 74.476 L 71.759 74.15 C 71.817 73.949 71.873 73.747 71.925 73.545 C 72.102 72.838 72.259 72.12 72.408 71.401 L 72.452 71.208 C 72.476 71.102 72.502 70.996 72.521 70.892 C 72.696 70.003 72.851 69.09 72.982 68.179 C 73.009 67.996 73.03 67.812 73.05 67.626 L 73.107 67.157 C 73.181 66.574 73.256 65.991 73.309 65.406 C 73.334 65.144 73.352 64.881 73.368 64.617 L 73.425 63.857 C 73.43 63.8 73.435 63.744 73.439 63.687 L 83.288 63.687 C 82.613 70.242 80.14 76.429 76.099 81.659 Z  M 83.469 60.921 L 73.562 60.921 C 73.567 60.615 73.571 60.307 73.571 60 C 73.571 59.186 73.553 58.372 73.518 57.56 C 73.51 57.396 73.498 57.233 73.488 57.069 L 73.463 56.683 C 73.435 56.168 73.406 55.654 73.363 55.143 C 73.344 54.928 73.321 54.713 73.297 54.498 L 73.239 53.944 C 73.2 53.543 73.159 53.142 73.108 52.745 C 73.08 52.529 73.047 52.315 73.014 52.1 L 72.927 51.525 C 72.871 51.142 72.815 50.759 72.751 50.384 C 72.708 50.138 72.661 49.896 72.614 49.654 L 72.501 49.077 C 72.436 48.736 72.369 48.396 72.296 48.056 C 72.237 47.791 72.173 47.529 72.109 47.267 L 71.997 46.801 C 71.915 46.46 71.833 46.119 71.743 45.779 C 71.68 45.544 71.612 45.311 71.545 45.078 L 71.41 44.608 C 71.308 44.256 71.205 43.904 71.095 43.56 C 71.031 43.354 70.963 43.152 70.894 42.949 L 79.116 42.949 C 81.975 48.158 83.485 54.042 83.485 60 C 83.485 60.295 83.479 60.6 83.469 60.921 Z " fill="rgb(255,255,255)"/></g></g></g></g></g></g></svg>