<?xml version="1.0" standalone="no"?><!-- Generator: Gravit.io --><svg xmlns="http://www.w3.org/2000/svg" xmlns:xlink="http://www.w3.org/1999/xlink" style="isolation:isolate" viewBox="0 0 100 125" width="100" height="125"><defs><clipPath id="_clipPath_qLwQDjQ8xb8Yx6SHzYrQ9xHTlOiliGja"><rect width="100" height="125"/></clipPath></defs><g clip-path="url(#_clipPath_qLwQDjQ8xb8Yx6SHzYrQ9xHTlOiliGja)"><path d=" M 67.7 40.4 C 68.3 40.4 68.7 40 68.7 39.4 L 68.7 38.2 C 68.7 37.6 68.3 37.2 67.7 37.2 C 67.1 37.2 66.7 37.6 66.7 38.2 L 66.7 39.4 C 66.7 40 67.1 40.4 67.7 40.4 Z " fill="rgb(56,131,239)"/><path d=" M 72.5 40.4 C 73.1 40.4 73.5 40 73.5 39.4 L 73.5 38.2 C 73.5 37.6 73.1 37.2 72.5 37.2 C 71.9 37.2 71.5 37.6 71.5 38.2 L 71.5 39.4 C 71.5 40 72 40.4 72.5 40.4 Z " fill="rgb(56,131,239)"/><path d=" M 67.7 45.2 C 68.3 45.2 68.7 44.8 68.7 44.2 L 68.7 43 C 68.7 42.4 68.3 42 67.7 42 C 67.1 42 66.7 42.4 66.7 43 L 66.7 44.2 C 66.7 44.8 67.1 45.2 67.7 45.2 Z " fill="rgb(56,131,239)"/><path d=" M 72.5 45.2 C 73.1 45.2 73.5 44.8 73.5 44.2 L 73.5 43 C 73.5 42.4 73.1 42 72.5 42 C 71.9 42 71.5 42.4 71.5 43 L 71.5 44.2 C 71.5 44.8 72 45.2 72.5 45.2 Z " fill="rgb(56,131,239)"/><path d=" M 67.7 49.9 C 68.3 49.9 68.7 49.5 68.7 48.9 L 68.7 47.7 C 68.7 47.1 68.3 46.7 67.7 46.7 C 67.1 46.7 66.7 47.1 66.7 47.7 L 66.7 48.9 C 66.7 49.5 67.1 49.9 67.7 49.9 Z " fill="rgb(56,131,239)"/><path d=" M 72.5 49.9 C 73.1 49.9 73.5 49.5 73.5 48.9 L 73.5 47.7 C 73.5 47.1 73.1 46.7 72.5 46.7 C 71.9 46.7 71.5 47.1 71.5 47.7 L 71.5 48.9 C 71.5 49.5 72 49.9 72.5 49.9 Z " fill="rgb(56,131,239)"/><path d=" M 67.7 54.8 C 68.3 54.8 68.7 54.4 68.7 53.8 L 68.7 52.6 C 68.7 52 68.3 51.6 67.7 51.6 C 67.1 51.6 66.7 52 66.7 52.6 L 66.7 53.8 C 66.7 54.4 67.1 54.8 67.7 54.8 Z " fill="rgb(56,131,239)"/><path d=" M 72.5 54.8 C 73.1 54.8 73.5 54.4 73.5 53.8 L 73.5 52.6 C 73.5 52 73.1 51.6 72.5 51.6 C 71.9 51.6 71.5 52 71.5 52.6 L 71.5 53.8 C 71.5 54.4 72 54.8 72.5 54.8 Z " fill="rgb(56,131,239)"/><path d=" M 67.7 59.6 C 68.3 59.6 68.7 59.2 68.7 58.6 L 68.7 57.4 C 68.7 56.8 68.3 56.4 67.7 56.4 C 67.1 56.4 66.7 56.8 66.7 57.4 L 66.7 58.6 C 66.7 59.1 67.1 59.6 67.7 59.6 Z " fill="rgb(56,131,239)"/><path d=" M 72.5 59.6 C 73.1 59.6 73.5 59.2 73.5 58.6 L 73.5 57.4 C 73.5 56.8 73.1 56.4 72.5 56.4 C 71.9 56.4 71.5 56.8 71.5 57.4 L 71.5 58.6 C 71.5 59.1 72 59.6 72.5 59.6 Z " fill="rgb(56,131,239)"/><path d=" M 46.6 53 C 47.2 53 47.6 52.6 47.6 52 L 47.6 49.9 C 47.6 49.3 47.2 48.9 46.6 48.9 C 46 48.9 45.6 49.3 45.6 49.9 L 45.6 52 C 45.6 52.6 46 53 46.6 53 Z " fill="rgb(56,131,239)"/><path d=" M 50.8 53 C 51.4 53 51.8 52.6 51.8 52 L 51.8 49.9 C 51.8 49.3 51.4 48.9 50.8 48.9 C 50.2 48.9 49.8 49.3 49.8 49.9 L 49.8 52 C 49.8 52.6 50.2 53 50.8 53 Z " fill="rgb(56,131,239)"/><path d=" M 55 53 C 55.6 53 56 52.6 56 52 L 56 49.9 C 56 49.3 55.6 48.9 55 48.9 C 54.4 48.9 54 49.3 54 49.9 L 54 52 C 54 52.6 54.4 53 55 53 Z " fill="rgb(56,131,239)"/><path d=" M 59.8 18.8 C 59.2 18.8 58.8 19.2 58.8 19.8 L 58.8 21.9 C 58.8 22.5 59.2 22.9 59.8 22.9 C 60.4 22.9 60.8 22.5 60.8 21.9 L 60.8 19.8 C 60.8 19.2 60.3 18.8 59.8 18.8 Z " fill="rgb(56,131,239)"/><path d=" M 64 22.9 C 64.6 22.9 65 22.5 65 21.9 L 65 19.8 C 65 19.2 64.6 18.8 64 18.8 C 63.4 18.8 63 19.2 63 19.8 L 63 21.9 C 63 22.4 63.4 22.9 64 22.9 Z " fill="rgb(56,131,239)"/><path d=" M 68.2 22.9 C 68.8 22.9 69.2 22.5 69.2 21.9 L 69.2 19.8 C 69.2 19.2 68.8 18.8 68.2 18.8 C 67.6 18.8 67.2 19.2 67.2 19.8 L 67.2 21.9 C 67.2 22.4 67.6 22.9 68.2 22.9 Z " fill="rgb(56,131,239)"/><path d=" M 59.8 25.4 C 59.2 25.4 58.8 25.8 58.8 26.4 L 58.8 28.5 C 58.8 29.1 59.2 29.5 59.8 29.5 C 60.4 29.5 60.8 29.1 60.8 28.5 L 60.8 26.4 C 60.8 25.8 60.3 25.4 59.8 25.4 Z " fill="rgb(56,131,239)"/><path d=" M 64 29.5 C 64.6 29.5 65 29.1 65 28.5 L 65 26.4 C 65 25.8 64.6 25.4 64 25.4 C 63.4 25.4 63 25.8 63 26.4 L 63 28.5 C 63 29.1 63.4 29.5 64 29.5 Z " fill="rgb(56,131,239)"/><path d=" M 68.2 29.5 C 68.8 29.5 69.2 29.1 69.2 28.5 L 69.2 26.4 C 69.2 25.8 68.8 25.4 68.2 25.4 C 67.6 25.4 67.2 25.8 67.2 26.4 L 67.2 28.5 C 67.2 29.1 67.6 29.5 68.2 29.5 Z " fill="rgb(56,131,239)"/><path d=" M 46.6 61.7 C 47.2 61.7 47.6 61.3 47.6 60.7 L 47.6 58.6 C 47.6 58 47.2 57.6 46.6 57.6 C 46 57.6 45.6 58 45.6 58.6 L 45.6 60.7 C 45.6 61.2 46 61.7 46.6 61.7 Z " fill="rgb(56,131,239)"/><path d=" M 50.8 61.7 C 51.4 61.7 51.8 61.3 51.8 60.7 L 51.8 58.6 C 51.8 58 51.4 57.6 50.8 57.6 C 50.2 57.6 49.8 58 49.8 58.6 L 49.8 60.7 C 49.8 61.2 50.2 61.7 50.8 61.7 Z " fill="rgb(56,131,239)"/><path d=" M 55 61.7 C 55.6 61.7 56 61.3 56 60.7 L 56 58.6 C 56 58 55.6 57.6 55 57.6 C 54.4 57.6 54 58 54 58.6 L 54 60.7 C 54 61.2 54.4 61.7 55 61.7 Z " fill="rgb(56,131,239)"/><path d=" M 46.6 70.3 C 47.2 70.3 47.6 69.9 47.6 69.3 L 47.6 67.2 C 47.6 66.6 47.2 66.2 46.6 66.2 C 46 66.2 45.6 66.6 45.6 67.2 L 45.6 69.3 C 45.6 69.9 46 70.3 46.6 70.3 Z " fill="rgb(56,131,239)"/><path d=" M 50.8 70.3 C 51.4 70.3 51.8 69.9 51.8 69.3 L 51.8 67.2 C 51.8 66.6 51.4 66.2 50.8 66.2 C 50.2 66.2 49.8 66.6 49.8 67.2 L 49.8 69.3 C 49.8 69.9 50.2 70.3 50.8 70.3 Z " fill="rgb(56,131,239)"/><path d=" M 55 70.3 C 55.6 70.3 56 69.9 56 69.3 L 56 67.2 C 56 66.6 55.6 66.2 55 66.2 C 54.4 66.2 54 66.6 54 67.2 L 54 69.3 C 54 69.9 54.4 70.3 55 70.3 Z " fill="rgb(56,131,239)"/><path d=" M 46.6 79 C 47.2 79 47.6 78.6 47.6 78 L 47.6 75.9 C 47.6 75.3 47.2 74.9 46.6 74.9 C 46 74.9 45.6 75.3 45.6 75.9 L 45.6 78 C 45.6 78.5 46 79 46.6 79 Z " fill="rgb(56,131,239)"/><path d=" M 50.8 79 C 51.4 79 51.8 78.6 51.8 78 L 51.8 75.9 C 51.8 75.3 51.4 74.9 50.8 74.9 C 50.2 74.9 49.8 75.3 49.8 75.9 L 49.8 78 C 49.8 78.5 50.2 79 50.8 79 Z " fill="rgb(56,131,239)"/><path d=" M 55 79 C 55.6 79 56 78.6 56 78 L 56 75.9 C 56 75.3 55.6 74.9 55 74.9 C 54.4 74.9 54 75.3 54 75.9 L 54 78 C 54 78.5 54.4 79 55 79 Z " fill="rgb(56,131,239)"/><path d=" M 90.3 84.9 L 87.3 84.9 L 87.3 82.3 C 89 81.9 90.3 80.3 90.3 78.5 C 90.3 77.2 89.7 76.1 88.7 75.4 C 89.3 74.8 89.6 74 89.6 73.1 C 89.6 71.3 88.1 69.8 86.3 69.8 C 84.5 69.8 83 71.3 83 73.1 C 83 74 83.4 74.8 83.9 75.4 C 82.9 76.1 82.3 77.3 82.3 78.5 C 82.3 80.3 83.5 81.8 85.1 82.3 L 85.1 84.9 L 80.2 84.9 L 80.2 63.2 C 80.2 62.6 79.8 62.2 79.2 62.2 L 77.1 62.2 L 77.1 34.4 C 77.1 33.8 76.7 33.4 76.1 33.4 L 73.5 33.4 L 73.5 14.1 C 73.5 13.5 73.1 13.1 72.5 13.1 L 55.3 13.1 C 54.7 13.1 54.3 13.5 54.3 14.1 L 54.3 36.4 C 54.3 36.5 54.3 36.5 54.3 36.6 L 51.7 38 L 51.7 28.2 C 51.7 27.8 51.4 27.4 51.1 27.3 L 41.1 23.5 C 41.1 23.4 41.1 23.4 41.1 23.3 L 41.1 16.8 C 41.1 16.2 40.7 15.8 40.1 15.8 C 39.5 15.8 39.1 16.2 39.1 16.8 L 39.1 22.7 L 29.5 19.1 C 29.2 19 28.8 19 28.6 19.2 C 28.3 19.4 28.2 19.7 28.2 20 L 28.2 55 L 24.5 55 C 23.9 55 23.5 55.4 23.5 56 L 23.5 84.7 L 18 84.7 L 18 82 C 19.8 81.6 21.1 80 21.1 78.1 C 21.1 76.8 20.5 75.6 19.5 74.9 C 20.1 74.3 20.5 73.5 20.5 72.5 C 20.5 70.7 19 69.1 17.1 69.1 C 15.2 69.1 13.7 70.6 13.7 72.5 C 13.7 73.4 14.1 74.3 14.7 74.9 C 13.7 75.6 13.1 76.8 13.1 78.1 C 13.1 79.9 14.3 81.5 16 81.9 L 16 84.6 L 11.3 84.6 C 10.7 84.6 10.3 85 10.3 85.6 C 10.3 86.2 10.7 86.6 11.3 86.6 L 90.3 86.6 C 90.9 86.6 91.3 86.2 91.3 85.6 C 91.3 85 90.8 84.9 90.3 84.9 Z  M 17.1 71.4 C 17.8 71.4 18.5 72 18.5 72.8 C 18.5 73.5 17.9 74.2 17.1 74.2 C 16.3 74.2 15.7 73.6 15.7 72.8 C 15.7 72 16.4 71.4 17.1 71.4 Z  M 15.1 78.3 C 15.1 77.2 16 76.3 17.1 76.3 C 18.2 76.3 19.1 77.2 19.1 78.3 C 19.1 79.4 18.2 80.3 17.1 80.3 C 16 80.3 15.1 79.4 15.1 78.3 Z  M 75.3 35.4 L 75.3 62.2 L 65 62.2 L 65 35.4 L 75.3 35.4 L 75.3 35.4 Z  M 37.1 84.9 L 29.6 84.9 L 29.6 76.3 C 29.6 74.2 31.3 72.5 33.3 72.5 C 35.3 72.5 37 74.2 37 76.3 L 37 84.9 L 37.1 84.9 Z  M 40.8 84.9 L 39.1 84.9 L 39.1 76.3 C 39.1 73.1 36.5 70.5 33.4 70.5 C 30.3 70.5 27.7 73.1 27.7 76.3 L 27.7 84.9 L 25.6 84.9 L 25.6 57.2 L 40.9 57.2 L 40.9 84.9 L 40.8 84.9 Z  M 40.8 44.7 L 40.8 55.1 L 30.2 55.1 L 30.2 21.6 L 49.8 29 L 49.8 39.2 L 41.4 43.9 C 41 44 40.8 44.4 40.8 44.7 Z  M 59.4 84.9 L 42.8 84.9 L 42.8 45.3 L 59.4 36.1 L 59.4 84.9 L 59.4 84.9 Z  M 60.9 33.6 C 60.6 33.4 60.2 33.4 59.9 33.6 L 56.3 35.6 L 56.3 15.1 L 71.6 15.1 L 71.6 33.4 L 64 33.4 C 63.4 33.4 63 33.8 63 34.4 L 63 62.2 L 61.4 62.2 L 61.4 34.5 C 61.4 34.1 61.2 33.8 60.9 33.6 Z  M 73.4 84.9 L 66 84.9 L 66 76.3 C 66 74.2 67.7 72.5 69.7 72.5 C 71.7 72.5 73.4 74.2 73.4 76.3 L 73.4 84.9 L 73.4 84.9 Z  M 78.3 84.9 L 75.4 84.9 L 75.4 76.3 C 75.4 73.1 72.8 70.5 69.7 70.5 C 66.6 70.5 64 73.1 64 76.3 L 64 84.9 L 61.4 84.9 L 61.4 64.2 L 78.4 64.2 L 78.4 84.9 L 78.3 84.9 Z  M 86.4 71.8 C 87.1 71.8 87.7 72.4 87.7 73.1 C 87.7 73.8 87.1 74.4 86.4 74.4 C 85.7 74.4 85.1 73.8 85.1 73.1 C 85.1 72.4 85.7 71.8 86.4 71.8 Z  M 84.4 78.5 C 84.4 77.4 85.3 76.6 86.3 76.6 C 87.3 76.6 88.2 77.5 88.2 78.5 C 88.2 79.5 87.3 80.4 86.3 80.4 C 85.3 80.4 84.4 79.6 84.4 78.5 Z " fill="rgb(56,131,239)"/><path d=" M 38 33.4 L 33.2 33.4 C 32.6 33.4 32.2 33.8 32.2 34.4 C 32.2 35 32.6 35.4 33.2 35.4 L 38 35.4 C 38.6 35.4 39 35 39 34.4 C 39 33.8 38.5 33.4 38 33.4 Z " fill="rgb(56,131,239)"/><path d=" M 38 37.8 L 33.2 37.8 C 32.6 37.8 32.2 38.2 32.2 38.8 C 32.2 39.4 32.6 39.8 33.2 39.8 L 38 39.8 C 38.6 39.8 39 39.4 39 38.8 C 39 38.2 38.5 37.8 38 37.8 Z " fill="rgb(56,131,239)"/><path d=" M 38 42.2 L 33.2 42.2 C 32.6 42.2 32.2 42.6 32.2 43.2 C 32.2 43.8 32.6 44.2 33.2 44.2 L 38 44.2 C 38.6 44.2 39 43.8 39 43.2 C 39 42.6 38.5 42.2 38 42.2 Z " fill="rgb(56,131,239)"/><path d=" M 46.8 37.9 L 42 37.9 C 41.4 37.9 41 38.3 41 38.9 C 41 39.5 41.4 39.9 42 39.9 L 46.8 39.9 C 47.4 39.9 47.8 39.5 47.8 38.9 C 47.8 38.3 47.4 37.9 46.8 37.9 Z " fill="rgb(56,131,239)"/><path d=" M 38 28.5 L 33.2 28.5 C 32.6 28.5 32.2 28.9 32.2 29.5 C 32.2 30.1 32.6 30.5 33.2 30.5 L 38 30.5 C 38.6 30.5 39 30.1 39 29.5 C 39 28.9 38.5 28.5 38 28.5 Z " fill="rgb(56,131,239)"/><path d=" M 46.8 33.4 L 42 33.4 C 41.4 33.4 41 33.8 41 34.4 C 41 35 41.4 35.4 42 35.4 L 46.8 35.4 C 47.4 35.4 47.8 35 47.8 34.4 C 47.8 33.8 47.4 33.4 46.8 33.4 Z " fill="rgb(56,131,239)"/><path d=" M 38 46.6 L 33.2 46.6 C 32.6 46.6 32.2 47 32.2 47.6 C 32.2 48.2 32.6 48.6 33.2 48.6 L 38 48.6 C 38.6 48.6 39 48.2 39 47.6 C 39 47 38.5 46.6 38 46.6 Z " fill="rgb(56,131,239)"/><path d=" M 38 50.9 L 33.2 50.9 C 32.6 50.9 32.2 51.3 32.2 51.9 C 32.2 52.5 32.6 52.9 33.2 52.9 L 38 52.9 C 38.6 52.9 39 52.5 39 51.9 C 39 51.3 38.5 50.9 38 50.9 Z " fill="rgb(56,131,239)"/></g></svg>