<?xml version="1.0" standalone="no"?><!-- Generator: Gravit.io --><svg xmlns="http://www.w3.org/2000/svg" xmlns:xlink="http://www.w3.org/1999/xlink" style="isolation:isolate" viewBox="0 0 100 125" width="100" height="125"><defs><clipPath id="_clipPath_8K48N6IWtqzzbBCuqDFMMdkExpK1TjrU"><rect width="100" height="125"/></clipPath></defs><g clip-path="url(#_clipPath_8K48N6IWtqzzbBCuqDFMMdkExpK1TjrU)"><g><rect x="21.363" y="76.818" width="8.183" height="20.455" transform="matrix(1,0,0,1,0,0)" fill="rgb(0,0,0)"/><rect x="37.728" y="76.818" width="8.182" height="20.455" transform="matrix(1,0,0,1,0,0)" fill="rgb(0,0,0)"/><rect x="54.091" y="76.818" width="8.182" height="20.455" transform="matrix(1,0,0,1,0,0)" fill="rgb(0,0,0)"/><rect x="70.454" y="76.818" width="8.183" height="20.455" transform="matrix(1,0,0,1,0,0)" fill="rgb(0,0,0)"/><rect x="13.182" y="66.591" width="73.637" height="8.182" transform="matrix(1,0,0,1,0,0)" fill="rgb(0,0,0)"/><rect x="13.182" y="99.318" width="73.637" height="8.182" transform="matrix(1,0,0,1,0,0)" fill="rgb(0,0,0)"/><path d=" M 78.534 64.545 C 78.58 63.866 78.637 63.191 78.637 62.5 C 78.637 48.078 67.962 36.181 54.091 34.189 L 54.091 21.591 C 54.091 19.333 52.257 17.5 50 17.5 C 47.739 17.5 45.909 19.333 45.909 21.591 L 45.909 34.19 C 32.038 36.181 21.363 48.078 21.363 62.5 C 21.363 63.191 21.418 63.866 21.467 64.545 L 78.534 64.545 Z " fill="rgb(0,0,0)"/></g></g></svg>