<?xml version="1.0" standalone="no"?><!-- Generator: Gravit.io --><svg xmlns="http://www.w3.org/2000/svg" xmlns:xlink="http://www.w3.org/1999/xlink" style="isolation:isolate" viewBox="0 0 64 80" width="64" height="80"><defs><clipPath id="_clipPath_UecqVW7LpLHxthNhFgP10mrqvvEXD71Z"><rect width="64" height="80"/></clipPath></defs><g clip-path="url(#_clipPath_UecqVW7LpLHxthNhFgP10mrqvvEXD71Z)"><path d=" M 50.65 11.8 C 45.56 7.09 38.93 4.5 32 4.5 C 25.07 4.5 18.44 7.09 13.35 11.8 C 9.41 15.44 6.64 20.1 5.34 25.27 C 4.78 27.46 4.5 29.73 4.5 32 C 4.5 34.27 4.78 36.54 5.33 38.73 C 6.63 43.9 9.4 48.56 13.34 52.2 C 18.43 56.91 25.06 59.5 31.99 59.5 C 38.92 59.5 45.55 56.91 50.64 52.2 C 54.58 48.56 57.35 43.9 58.65 38.73 C 59.2 36.53 59.48 34.27 59.48 32 C 59.48 29.73 59.2 27.46 58.65 25.27 C 57.36 20.1 54.59 15.44 50.65 11.8 Z  M 26.79 7.03 C 26.77 7.05 26.75 7.08 26.73 7.1 C 26.51 7.33 26.29 7.58 26.08 7.85 C 26.03 7.91 25.98 7.97 25.93 8.04 C 25.7 8.33 25.48 8.64 25.26 8.96 C 25.22 9.02 25.18 9.09 25.14 9.15 C 24.94 9.45 24.75 9.76 24.56 10.08 C 24.52 10.15 24.48 10.21 24.44 10.28 C 24.23 10.64 24.03 11.03 23.84 11.42 C 23.82 11.46 23.8 11.49 23.78 11.53 L 16.8 11.53 C 19.77 9.31 23.18 7.79 26.79 7.03 Z  M 14.42 13.53 L 22.9 13.53 C 22.73 13.97 22.56 14.43 22.4 14.89 C 22.35 15.03 22.31 15.17 22.26 15.31 C 22.15 15.65 22.04 15.99 21.93 16.33 C 21.88 16.5 21.83 16.68 21.78 16.85 C 21.68 17.19 21.59 17.53 21.5 17.87 C 21.46 18.04 21.41 18.21 21.37 18.39 C 21.27 18.8 21.18 19.21 21.08 19.63 C 21.05 19.75 21.03 19.86 21 19.97 C 20.89 20.51 20.78 21.05 20.68 21.61 C 20.66 21.74 20.64 21.87 20.62 21.99 C 20.55 22.42 20.48 22.86 20.41 23.3 C 20.38 23.49 20.36 23.67 20.33 23.86 C 20.3 24.07 20.27 24.28 20.24 24.5 L 7.62 24.5 C 8.9 20.34 11.23 16.57 14.42 13.53 Z  M 6.5 32 C 6.5 30.15 6.7 28.31 7.1 26.51 L 20.05 26.51 C 20.01 26.99 19.99 27.48 19.96 27.97 C 19.94 28.29 19.91 28.6 19.9 28.93 C 19.85 29.95 19.82 30.98 19.82 32.01 C 19.82 33.04 19.85 34.06 19.9 35.09 C 19.92 35.41 19.94 35.73 19.96 36.05 C 19.99 36.54 20.01 37.03 20.05 37.51 L 7.1 37.51 C 6.7 35.69 6.5 33.85 6.5 32 Z  M 7.62 39.49 L 20.26 39.49 C 20.29 39.71 20.32 39.92 20.35 40.13 C 20.37 40.32 20.4 40.5 20.43 40.69 C 20.49 41.13 20.56 41.57 20.64 42 C 20.66 42.13 20.68 42.26 20.7 42.38 C 20.8 42.93 20.9 43.48 21.02 44.02 C 21.04 44.14 21.07 44.25 21.1 44.36 C 21.19 44.78 21.29 45.19 21.39 45.6 C 21.43 45.78 21.48 45.95 21.52 46.12 C 21.61 46.47 21.7 46.81 21.8 47.14 C 21.85 47.31 21.9 47.49 21.95 47.66 C 22.05 48.01 22.16 48.35 22.28 48.68 C 22.33 48.82 22.37 48.96 22.42 49.1 C 22.58 49.56 22.75 50.02 22.92 50.46 L 14.44 50.46 C 11.23 47.43 8.9 43.66 7.62 39.49 Z  M 16.79 52.47 L 23.77 52.47 C 23.79 52.51 23.81 52.54 23.83 52.58 C 24.03 52.98 24.23 53.36 24.43 53.72 C 24.47 53.79 24.51 53.85 24.55 53.92 C 24.74 54.24 24.93 54.55 25.13 54.85 C 25.17 54.91 25.21 54.98 25.25 55.04 C 25.47 55.37 25.7 55.67 25.92 55.96 C 25.97 56.02 26.02 56.08 26.07 56.15 C 26.28 56.41 26.5 56.66 26.72 56.9 C 26.74 56.92 26.76 56.95 26.78 56.97 C 23.18 56.21 19.77 54.69 16.79 52.47 Z  M 31 57.36 C 30.75 57.29 30.51 57.21 30.26 57.1 C 30.2 57.07 30.13 57.03 30.07 57 C 29.86 56.9 29.66 56.77 29.46 56.64 C 29.38 56.59 29.3 56.53 29.22 56.47 C 29 56.31 28.79 56.13 28.57 55.93 C 28.53 55.89 28.48 55.85 28.44 55.81 C 28.19 55.56 27.94 55.29 27.69 54.99 C 27.62 54.91 27.56 54.82 27.49 54.74 C 27.3 54.5 27.12 54.25 26.94 53.99 C 26.87 53.88 26.8 53.78 26.72 53.67 C 26.51 53.35 26.31 53.01 26.11 52.65 C 26.08 52.6 26.05 52.55 26.02 52.5 C 26.02 52.49 26.01 52.48 26.01 52.47 L 31 52.47 L 31 57.36 L 31 57.36 Z  M 31 50.47 L 25.07 50.47 C 25.01 50.33 24.95 50.2 24.89 50.06 C 24.82 49.88 24.74 49.7 24.67 49.52 C 24.57 49.25 24.47 48.98 24.37 48.7 C 24.31 48.53 24.25 48.36 24.19 48.19 C 24.07 47.84 23.96 47.48 23.85 47.12 C 23.82 47.01 23.78 46.9 23.75 46.79 C 23.61 46.31 23.48 45.82 23.35 45.33 C 23.32 45.19 23.29 45.05 23.25 44.92 C 23.16 44.55 23.07 44.18 22.99 43.8 C 22.95 43.61 22.91 43.41 22.87 43.22 C 22.8 42.89 22.74 42.56 22.68 42.22 C 22.64 42 22.6 41.78 22.57 41.56 C 22.52 41.23 22.46 40.91 22.42 40.57 C 22.39 40.34 22.35 40.11 22.32 39.87 C 22.3 39.75 22.29 39.62 22.27 39.5 L 31 39.5 L 31 50.47 L 31 50.47 Z  M 31 37.49 L 22.08 37.49 C 22.03 36.98 21.99 36.47 21.96 35.96 C 21.94 35.64 21.91 35.33 21.9 35.01 C 21.85 34.01 21.82 33 21.82 31.99 C 21.82 30.98 21.85 29.97 21.9 28.97 C 21.92 28.65 21.94 28.34 21.96 28.02 C 21.99 27.51 22.03 27 22.08 26.49 L 31 26.49 L 31 37.49 L 31 37.49 Z  M 31 24.51 L 22.28 24.51 C 22.3 24.39 22.31 24.26 22.33 24.14 C 22.36 23.91 22.39 23.67 22.43 23.44 C 22.48 23.11 22.53 22.78 22.58 22.45 C 22.62 22.23 22.65 22.01 22.69 21.79 C 22.75 21.45 22.82 21.12 22.88 20.79 C 22.92 20.6 22.96 20.4 23 20.21 C 23.08 19.83 23.17 19.46 23.26 19.09 C 23.29 18.95 23.32 18.81 23.36 18.68 C 23.49 18.18 23.62 17.69 23.76 17.22 C 23.79 17.11 23.83 17 23.86 16.89 C 23.97 16.53 24.08 16.17 24.2 15.82 C 24.26 15.65 24.32 15.48 24.38 15.31 C 24.48 15.03 24.58 14.76 24.68 14.49 C 24.75 14.31 24.82 14.13 24.9 13.95 C 24.96 13.81 25.02 13.67 25.08 13.54 L 31 13.54 L 31 24.51 L 31 24.51 Z  M 31 11.53 L 26.03 11.53 C 26.03 11.52 26.04 11.51 26.04 11.5 C 26.07 11.45 26.1 11.4 26.13 11.35 C 26.33 10.99 26.53 10.65 26.74 10.33 C 26.81 10.22 26.88 10.11 26.96 10.01 C 27.14 9.74 27.32 9.49 27.51 9.26 C 27.58 9.18 27.64 9.09 27.71 9.01 C 27.96 8.71 28.2 8.44 28.46 8.19 C 28.5 8.15 28.55 8.11 28.59 8.07 C 28.8 7.87 29.02 7.69 29.24 7.53 C 29.32 7.47 29.4 7.42 29.48 7.36 C 29.68 7.22 29.89 7.1 30.09 7 C 30.15 6.97 30.22 6.93 30.28 6.9 C 30.52 6.79 30.77 6.7 31.02 6.64 L 31.02 11.53 L 31 11.53 Z  M 56.38 24.51 L 43.74 24.51 C 43.71 24.29 43.68 24.08 43.65 23.87 C 43.63 23.68 43.6 23.5 43.57 23.31 C 43.51 22.87 43.44 22.43 43.36 21.99 C 43.34 21.87 43.32 21.74 43.3 21.61 C 43.2 21.05 43.1 20.51 42.98 19.97 C 42.96 19.85 42.93 19.74 42.9 19.63 C 42.81 19.21 42.71 18.8 42.61 18.39 C 42.57 18.21 42.52 18.04 42.48 17.87 C 42.39 17.52 42.3 17.18 42.2 16.85 C 42.15 16.68 42.1 16.5 42.05 16.33 C 41.94 15.98 41.84 15.64 41.72 15.3 C 41.67 15.16 41.63 15.02 41.58 14.88 C 41.42 14.42 41.25 13.96 41.08 13.52 L 49.56 13.52 C 52.77 16.57 55.1 20.34 56.38 24.51 Z  M 47.21 11.53 L 40.23 11.53 C 40.21 11.49 40.19 11.46 40.17 11.42 C 39.97 11.02 39.77 10.64 39.57 10.28 C 39.53 10.21 39.49 10.15 39.45 10.08 C 39.26 9.76 39.07 9.45 38.88 9.15 C 38.84 9.09 38.8 9.02 38.76 8.96 C 38.54 8.63 38.32 8.33 38.09 8.04 C 38.04 7.98 37.99 7.92 37.94 7.85 C 37.73 7.59 37.51 7.34 37.29 7.1 C 37.27 7.08 37.25 7.05 37.23 7.03 C 40.82 7.79 44.23 9.31 47.21 11.53 Z  M 33 6.64 C 33.25 6.71 33.49 6.79 33.74 6.9 C 33.8 6.93 33.87 6.97 33.93 7 C 34.14 7.1 34.34 7.23 34.54 7.36 C 34.62 7.41 34.7 7.47 34.78 7.53 C 35 7.7 35.21 7.88 35.42 8.08 C 35.46 8.12 35.51 8.16 35.55 8.2 C 35.8 8.45 36.05 8.72 36.3 9.02 C 36.37 9.1 36.43 9.19 36.5 9.27 C 36.69 9.51 36.87 9.76 37.05 10.02 C 37.12 10.13 37.19 10.23 37.27 10.34 C 37.48 10.66 37.68 11 37.88 11.36 C 37.91 11.41 37.94 11.46 37.97 11.51 C 37.97 11.52 37.98 11.53 37.98 11.54 L 33 11.54 L 33 6.64 L 33 6.64 Z  M 33 13.53 L 38.93 13.53 C 38.99 13.67 39.05 13.8 39.11 13.94 C 39.18 14.12 39.26 14.3 39.33 14.48 C 39.43 14.75 39.53 15.02 39.63 15.3 C 39.69 15.47 39.75 15.64 39.81 15.81 C 39.93 16.16 40.04 16.52 40.15 16.88 C 40.18 16.99 40.22 17.1 40.25 17.21 C 40.39 17.69 40.52 18.18 40.65 18.67 C 40.68 18.81 40.71 18.95 40.75 19.08 C 40.84 19.45 40.93 19.82 41.01 20.2 C 41.05 20.39 41.09 20.59 41.13 20.78 C 41.2 21.11 41.26 21.44 41.32 21.78 C 41.36 22 41.4 22.22 41.43 22.44 C 41.48 22.77 41.54 23.09 41.58 23.43 C 41.61 23.66 41.65 23.89 41.68 24.13 C 41.7 24.25 41.71 24.38 41.73 24.5 L 33 24.5 L 33 13.53 L 33 13.53 Z  M 33 26.51 L 41.92 26.51 C 41.97 27.02 42.01 27.53 42.04 28.04 C 42.06 28.36 42.09 28.67 42.1 28.99 C 42.15 29.99 42.18 31 42.18 32.01 C 42.18 33.02 42.15 34.03 42.1 35.03 C 42.08 35.35 42.06 35.66 42.04 35.98 C 42.01 36.49 41.97 37 41.92 37.51 L 33 37.51 L 33 26.51 L 33 26.51 Z  M 33 39.49 L 41.72 39.49 C 41.7 39.61 41.69 39.74 41.67 39.86 C 41.64 40.09 41.61 40.33 41.57 40.56 C 41.52 40.89 41.47 41.22 41.42 41.55 C 41.38 41.77 41.35 41.99 41.31 42.21 C 41.25 42.55 41.18 42.88 41.12 43.21 C 41.08 43.4 41.04 43.6 41 43.79 C 40.92 44.17 40.83 44.54 40.74 44.91 C 40.71 45.05 40.68 45.19 40.64 45.32 C 40.51 45.82 40.38 46.31 40.24 46.78 C 40.21 46.89 40.17 47 40.14 47.11 C 40.03 47.47 39.92 47.83 39.8 48.18 C 39.74 48.35 39.68 48.52 39.62 48.69 C 39.52 48.97 39.42 49.24 39.32 49.51 C 39.25 49.69 39.18 49.87 39.1 50.05 C 39.04 50.19 38.98 50.33 38.92 50.46 L 33 50.46 L 33 39.49 L 33 39.49 Z  M 36.5 54.74 C 36.43 54.82 36.37 54.91 36.3 54.99 C 36.05 55.29 35.81 55.56 35.55 55.81 C 35.51 55.85 35.46 55.89 35.42 55.93 C 35.21 56.13 34.99 56.31 34.77 56.47 C 34.69 56.53 34.61 56.58 34.53 56.64 C 34.33 56.78 34.12 56.9 33.92 57 C 33.86 57.03 33.79 57.07 33.73 57.1 C 33.49 57.21 33.24 57.3 32.99 57.36 L 32.99 52.47 L 37.96 52.47 C 37.96 52.48 37.95 52.49 37.95 52.5 C 37.92 52.55 37.89 52.6 37.86 52.65 C 37.66 53.01 37.46 53.35 37.25 53.67 C 37.18 53.78 37.11 53.89 37.03 53.99 C 36.87 54.25 36.68 54.5 36.5 54.74 Z  M 37.21 56.97 C 37.23 56.95 37.25 56.92 37.27 56.9 C 37.49 56.67 37.71 56.42 37.92 56.15 C 37.97 56.09 38.02 56.03 38.07 55.96 C 38.3 55.67 38.52 55.36 38.74 55.04 C 38.78 54.98 38.82 54.91 38.86 54.85 C 39.06 54.55 39.25 54.24 39.43 53.92 C 39.47 53.85 39.51 53.79 39.55 53.72 C 39.76 53.36 39.96 52.97 40.15 52.58 C 40.17 52.54 40.19 52.51 40.21 52.47 L 47.19 52.47 C 44.23 54.69 40.82 56.21 37.21 56.97 Z  M 49.58 50.47 L 41.1 50.47 C 41.27 50.03 41.44 49.57 41.6 49.11 C 41.65 48.97 41.69 48.83 41.74 48.69 C 41.85 48.35 41.96 48.01 42.07 47.66 C 42.12 47.49 42.17 47.32 42.22 47.14 C 42.32 46.8 42.41 46.46 42.5 46.12 C 42.54 45.95 42.59 45.78 42.63 45.6 C 42.73 45.19 42.82 44.78 42.92 44.36 C 42.95 44.24 42.97 44.13 43 44.02 C 43.11 43.48 43.22 42.94 43.32 42.38 C 43.34 42.26 43.36 42.13 43.38 42 C 43.45 41.57 43.52 41.13 43.59 40.68 C 43.62 40.49 43.64 40.31 43.67 40.12 C 43.7 39.91 43.73 39.7 43.76 39.48 L 56.4 39.48 C 55.1 43.66 52.77 47.43 49.58 50.47 Z  M 56.9 37.49 L 43.95 37.49 C 43.99 37.01 44.01 36.52 44.04 36.03 C 44.06 35.71 44.09 35.4 44.1 35.07 C 44.15 34.05 44.18 33.02 44.18 31.99 C 44.18 30.96 44.15 29.94 44.1 28.91 C 44.08 28.59 44.06 28.27 44.04 27.95 C 44.01 27.46 43.99 26.97 43.95 26.49 L 56.9 26.49 C 57.3 28.29 57.5 30.13 57.5 31.98 C 57.5 33.83 57.3 35.69 56.9 37.49 Z " fill="rgb(229,210,52)"/><g transform="matrix(1,0,0,1,0,78.656)"><text transform="matrix(1,0,0,1,0,5.344)" style="font-family:'Open Sans';font-weight:700;font-size:5px;font-style:normal;font-variant-ligatures:none;fill:#E5D234;stroke:none;">from the Noun Project</text></g></g></svg>